<?xml version="1.0" encoding="UTF-8"?>
<svg id="Layer_1" xmlns="http://www.w3.org/2000/svg" version="1.1" viewBox="0 0 400 400">
  <!-- Generator: Adobe Illustrator 30.2.1, SVG Export Plug-In . SVG Version: 2.1.1 Build 1)  -->
  <defs>
    <style>
      .st0 {
        stroke-dasharray: .48 .96;
      }

      .st0, .st1, .st2, .st3, .st4, .st5, .st6, .st7, .Graphic_x0020_Style_x0020_3 {
        fill: none;
        stroke: #fff;
        stroke-linecap: round;
        stroke-linejoin: round;
        stroke-width: .25px;
      }

      .st1 {
        stroke-dasharray: .52 1.04;
      }

      .st2 {
        stroke-dasharray: .48 .97;
      }

      .st8 {
        fill: #063756;
      }

      .st3 {
        stroke-dasharray: .5 1;
      }

      .st4 {
        stroke-dasharray: .49 .98;
      }

      .st5 {
        stroke-dasharray: .39 .77;
      }

      .st6 {
        stroke-dasharray: .47 .94;
      }

      .st7 {
        stroke-dasharray: .44 .87;
      }
    </style>
  </defs>
  <g>
    <polygon class="st8" points="273.01 346.16 280.17 350 285.53 348.04 280.11 344.37 273.01 346.16"/>
    <polygon class="st8" points="246.93 182.59 244.27 180.5 240.64 182.23 243.49 183.74 246.93 182.59"/>
    <polygon class="st8" points="241.33 186.29 242.4 186.79 242.99 184.88 241.98 183.46 240.49 183.46 241.28 184.88 241.33 186.29"/>
    <polygon class="st8" points="241.78 180.67 241.56 180.47 241.17 180.67 241.53 180.83 241.78 180.67"/>
    <polygon class="st8" points="345.31 222.1 337.67 213.99 330.38 213.1 326.91 212.26 325.68 211.87 318.19 207.84 311.62 197.89 311.45 196.46 311.56 194.84 310.52 190.28 310.39 190.17 311.53 185.16 309.86 183.55 308.18 185.09 304.15 189.78 302.34 190.56 301.44 191.45 300.74 192.6 299.4 193.92 293.92 198.73 290.76 202.64 280.03 208.54 259.34 209.3 254.56 206.41 254.53 206.58 251.09 203.59 254.89 195.34 253.75 193.11 254.09 190 253.41 186.26 250.31 184.02 247.84 185.39 247.01 187.54 247.21 188.41 244.69 194.84 245.11 196.66 245.81 199.53 245.25 200.71 242.96 197.64 241.84 194.84 236.5 186.51 238.59 181.17 236.5 178.62 235.07 175.58 220.93 161.88 216.84 155.39 213.13 147.59 212.79 146.59 212.01 145.49 208.96 145.39 215.42 141.11 211.22 137.89 219.08 138.73 219.14 138.7 212.6 132.25 212.06 127.74 207.92 122.96 209.58 116.62 207.7 113.35 204.49 108.99 194.59 103.56 189.98 102.17 187.88 96.13 184.16 93.72 181.17 84.52 184.25 82.87 186.9 76.92 189.25 76.97 189.72 74.66 187.96 72.67 189.22 68.56 182.57 66.16 176.05 59.89 175.25 56.76 173.31 52.32 168.56 53.44 168.17 53.52 166.72 52.54 164.85 51.25 164.2 50.81 161.46 50.56 154.86 50 153.32 50.22 147.96 51 142.68 51.76 137.62 52.51 136.11 52.73 134.77 52.93 119.53 55.14 118.94 55.34 109.55 57.77 106.53 57.82 99.91 57.04 92.69 56.18 87.3 57.66 82.12 58.22 77 56.23 76.45 56.23 76.37 62.35 70.46 68.28 67.53 66.97 65.88 70.65 67.73 74.99 68.23 82.46 67.98 83.91 64.34 87.46 63.06 91.15 62.33 91.6 61.18 94.95 57.83 100.84 57.83 100.84 57.48 103.33 55.02 109 54.31 111.52 53.4 113.91 52.58 115.58 50.49 118.78 50.07 119.36 49.14 120.37 48.34 121.09 47.55 121.8 47.44 121.91 47.26 122.04 47.34 122.2 47.84 123.26 55.13 143.11 55.42 143.95 56.32 143.32 58.97 133.52 56.32 143.32 56.12 145.55 53.44 157.04 53.3 159.25 60.26 163.16 67.89 173.96 80.86 191.93 84.83 202.89 96.49 211.06 100.32 216.65 105.3 226.88 104.15 233.67 107.65 245.69 112.96 252.37 127.22 263.05 132.53 274.6 139.24 284.21 148.69 297.05 149.33 300.46 149.8 306.86 147.46 308.96 154.36 330.09 155.48 333.03 155.37 338.53 158.36 344.49 168.87 344.97 177.06 341.86 184.78 336.94 201.94 333.98 204.37 333.25 209.1 330.09 218.61 328.64 226.85 322.02 244.8 316.26 259.59 310.67 264.15 301.61 272.64 297.5 284.72 293.47 294.14 293.27 297.56 291.03 301.11 283.68 311.36 281.87 316.9 272.64 328.28 269.12 327.41 263.05 330.48 253.41 337.67 250.86 340.53 245.89 347.15 239.71 352.74 229.28 345.31 222.1"/>
    <polygon class="st8" points="337.31 251.23 338.26 254.66 339.55 255 341 251.45 339.85 250.53 337.31 251.23"/>
    <polygon class="st8" points="265.24 191.26 266.27 189.92 264.87 187.12 262.16 189.42 263.45 191.48 265.24 191.26"/>
    <polygon class="st8" points="235.63 164.95 233.06 163.28 230.71 165.32 234.01 167.41 235.63 164.95"/>
    <polygon class="st8" points="134.87 291.88 136.89 294.23 140.27 294.42 139.65 291.68 134.87 291.88"/>
  </g>
  <g>
    <g>
      <g>
        <line class="Graphic_x0020_Style_x0020_3" x1="47.85" y1="123.27" x2="48.06" y2="123.14"/>
        <polyline class="st7" points="48.66 122.55 49.11 121.43 49.75 120.78 50.8 119.92"/>
        <polyline class="Graphic_x0020_Style_x0020_3" points="51.08 119.58 51.23 119.39 51.04 119.22"/>
        <line class="Graphic_x0020_Style_x0020_3" x1="50.69" y1="118.93" x2="50.5" y2="118.77"/>
      </g>
      <g>
        <line class="Graphic_x0020_Style_x0020_3" x1="56.12" y1="118.68" x2="56.18" y2="118.93"/>
        <line class="st0" x1="56.4" y1="119.86" x2="56.62" y2="120.8"/>
        <polyline class="Graphic_x0020_Style_x0020_3" points="56.74 121.27 56.79 121.51 57.03 121.44"/>
        <line class="st6" x1="57.94" y1="121.19" x2="61.58" y2="120.19"/>
        <line class="Graphic_x0020_Style_x0020_3" x1="62.03" y1="120.07" x2="62.28" y2="120"/>
      </g>
      <g>
        <line class="Graphic_x0020_Style_x0020_3" x1="63.2" y1="109.29" x2="62.97" y2="109.19"/>
        <line class="st3" x1="62.06" y1="108.78" x2="59.77" y2="107.76"/>
        <polyline class="Graphic_x0020_Style_x0020_3" points="59.31 107.55 59.08 107.45 58.91 107.62"/>
        <polyline class="st1" points="58.17 108.35 57.07 109.43 56.53 113.56"/>
        <line class="Graphic_x0020_Style_x0020_3" x1="56.46" y1="114.08" x2="56.43" y2="114.33"/>
      </g>
      <g>
        <line class="Graphic_x0020_Style_x0020_3" x1="56.43" y1="114.33" x2="56.41" y2="114.57"/>
        <line class="st2" x1="56.34" y1="115.54" x2="56.17" y2="117.95"/>
        <line class="Graphic_x0020_Style_x0020_3" x1="56.14" y1="118.43" x2="56.12" y2="118.68"/>
      </g>
      <g>
        <line class="Graphic_x0020_Style_x0020_3" x1="56.12" y1="118.68" x2="56.29" y2="118.5"/>
        <line class="st5" x1="56.83" y1="117.94" x2="57.36" y2="117.38"/>
        <polyline class="Graphic_x0020_Style_x0020_3" points="57.63 117.1 57.8 116.92 57.69 116.7"/>
        <line class="st4" x1="57.23" y1="115.84" x2="56.77" y2="114.98"/>
        <line class="Graphic_x0020_Style_x0020_3" x1="56.55" y1="114.55" x2="56.43" y2="114.33"/>
      </g>
    </g>
    <g>
      <polyline class="Graphic_x0020_Style_x0020_3" points="311.62 197.89 311 197.97 309.91 199.43 308.4 199.79 306.7 197.58 305.02 200.12 304.85 206.08 306.84 208.32 302.87 209.32 301.47 210.36 301.55 211.87 299.65 217.54 297.75 225.09"/>
      <polyline class="Graphic_x0020_Style_x0020_3" points="308.18 185.09 309.07 189.75 310.52 190.28"/>
      <line class="Graphic_x0020_Style_x0020_3" x1="47.26" y1="122.04" x2="47.85" y2="123.27"/>
      <polyline class="Graphic_x0020_Style_x0020_3" points="62.28 120 63.25 116.84 63.36 111 63.2 109.29"/>
      <polyline class="Graphic_x0020_Style_x0020_3" points="297.75 225.09 267.53 222.43 254.53 206.58"/>
      <polyline class="Graphic_x0020_Style_x0020_3" points="194.43 148.63 177.96 147.9 172.09 146.98 161.74 139.37 148.52 129.81 121.79 115.13 106.7 112.09"/>
      <polyline class="Graphic_x0020_Style_x0020_3" points="106.7 112.09 92.18 116.98 89.98 117.48 80.53 119.92 83.5 122.77 90.79 131.32 84.8 138.14 78.23 139.65 73.04 145.14 67.89 147.37 65.88 147.06 56.12 145.55"/>
      <polyline class="Graphic_x0020_Style_x0020_3" points="216.84 155.39 208.88 155.23 206.19 151 201.97 149.44 197.27 148.94 194.43 148.63"/>
      <polyline class="Graphic_x0020_Style_x0020_3" points="259.42 269.4 259.45 269.4 278.43 263.05 295.21 257.43 300.38 241.89 302.75 234.06 300.43 229.28 297.75 225.09"/>
      <polyline class="Graphic_x0020_Style_x0020_3" points="251.09 203.59 248.97 203.93 245.25 200.71"/>
      <polyline class="Graphic_x0020_Style_x0020_3" points="101.86 97.49 105.91 95.37 113.02 91.74 118.18 89.11 128.28 84.47 130.79 76.75 132.05 71.44 132.5 62.35 144.52 53.49 144.36 52.85 142.68 51.76"/>
      <line class="Graphic_x0020_Style_x0020_3" x1="64.04" y1="99.09" x2="64.59" y2="105.69"/>
      <polyline class="Graphic_x0020_Style_x0020_3" points="64.59 105.69 66.1 104.93 69.57 107.78 74.63 109.66 78.88 109.77 86.34 105.66 101.86 97.49"/>
      <polyline class="Graphic_x0020_Style_x0020_3" points="68.23 82.46 69.88 82.46 72.98 82.65 72.65 83.99 75.97 87.6 70.08 91.96 67.34 96.68 66.58 97.08 64.04 99.09"/>
      <polyline class="Graphic_x0020_Style_x0020_3" points="173.31 52.32 175.25 56.76 176.05 59.89 182.57 66.16 189.22 68.56 187.96 72.67 189.72 74.66 189.25 76.97 186.9 76.92 184.25 82.87 181.17 84.52 184.16 93.72 187.88 96.13 189.98 102.17 194.59 103.56 204.49 108.99 207.7 113.35 209.58 116.62 207.92 122.96 212.06 127.74 212.6 132.25 219.14 138.7"/>
      <polyline class="Graphic_x0020_Style_x0020_3" points="47.85 123.27 55.12 143.12 55.43 143.96"/>
      <line class="Graphic_x0020_Style_x0020_3" x1="106.7" y1="112.09" x2="101.86" y2="97.49"/>
      <polyline class="Graphic_x0020_Style_x0020_3" points="62.28 120 61.75 122.04 60.65 128.14 60.26 128.75 56.32 143.32"/>
      <line class="Graphic_x0020_Style_x0020_3" x1="64.59" y1="105.69" x2="63.2" y2="109.29"/>
      <polyline class="Graphic_x0020_Style_x0020_3" points="211.22 137.89 201.97 137.56 194.59 148.38 194.43 148.63"/>
      <polyline class="Graphic_x0020_Style_x0020_3" points="57.83 100.85 60.12 100.71 64.04 99.09"/>
      <line class="Graphic_x0020_Style_x0020_3" x1="272.64" y1="297.5" x2="259.42" y2="269.4"/>
      <polyline class="Graphic_x0020_Style_x0020_3" points="259.42 269.4 257.64 269.71 223.78 274.62 213.91 279.63 204.9 291.9 199.77 293.92 196.74 289.95 174.57 288.13 160.62 288.89 155.65 287.01 154.83 297.58 149.33 300.46"/>
      <polyline class="Graphic_x0020_Style_x0020_3" points="142.68 51.76 147.96 51 153.32 50.22 154.86 50 161.46 50.56 164.2 50.81 164.85 51.25 166.72 52.54 168.17 53.52 168.56 53.44 173.31 52.32"/>
      <polyline class="Graphic_x0020_Style_x0020_3" points="67.53 66.97 70.46 68.28 76.37 62.35 76.45 56.23 77 56.23 82.12 58.22 87.3 57.66 92.69 56.18 99.91 57.04 106.53 57.82 109.55 57.77 118.94 55.34 119.53 55.14 134.77 52.93 136.11 52.73 137.62 52.51 142.68 51.76"/>
    </g>
  </g>
</svg>