<?xml version="1.0" encoding="UTF-8"?>
<svg id="Layer_1" xmlns="http://www.w3.org/2000/svg" version="1.1" viewBox="0 0 400 400">
  <!-- Generator: Adobe Illustrator 30.2.1, SVG Export Plug-In . SVG Version: 2.1.1 Build 1)  -->
  <defs>
    <style>
      .st0 {
        fill: #00aac5;
      }

      .st1 {
        stroke-dasharray: .53 1.06;
      }

      .st1, .st2, .st3, .st4, .st5, .st6, .st7, .st8, .st9, .st10, .st11, .st12, .st13, .st14, .st15, .st16, .st17, .Graphic_x0020_Style_x0020_3, .st18 {
        fill: none;
        stroke: #fff;
        stroke-linecap: round;
        stroke-linejoin: round;
        stroke-width: .25px;
      }

      .st2 {
        stroke-dasharray: .3 .61;
      }

      .st3 {
        stroke-dasharray: .34 .68;
      }

      .st4 {
        stroke-dasharray: .51 1.02;
      }

      .st5 {
        stroke-dasharray: .5 1;
      }

      .st6 {
        stroke-dasharray: .27 .54;
      }

      .st7 {
        stroke-dasharray: .49 .97;
      }

      .st8 {
        stroke-dasharray: .54 1.08;
      }

      .st9 {
        stroke-dasharray: .52 1.05;
      }

      .st10 {
        stroke-dasharray: .48 .96;
      }

      .st11 {
        stroke-dasharray: .51 1.02;
      }

      .st12 {
        stroke-dasharray: .49 .97;
      }

      .st13 {
        stroke-dasharray: .45 .91;
      }

      .st14 {
        stroke-dasharray: .61 1.22;
      }

      .st15 {
        stroke-dasharray: .47 .94;
      }

      .st16 {
        stroke-dasharray: .54 1.09;
      }

      .st17 {
        stroke-dasharray: .35 .7;
      }

      .st18 {
        stroke-dasharray: .52 1.04;
      }
    </style>
  </defs>
  <g>
    <polygon class="st0" points="272.57 107.32 271.57 106.65 270.37 107.19 271.67 107.8 272.57 107.32"/>
    <polygon class="st0" points="25.08 138.72 26.31 138.86 26.77 138.04 25.69 137.63 25.08 138.72"/>
    <polygon class="st0" points="25.79 136.43 25.94 134.72 24.85 134.96 25.18 136.19 25.79 136.43"/>
    <polygon class="st0" points="24.15 141.38 23.97 142.45 24.69 142.71 25.19 142.33 24.72 141.11 24.15 141.38"/>
    <polygon class="st0" points="22.87 142.12 22.57 141.84 22.14 142.03 22.35 142.98 22.97 143.24 23.39 142.98 23.27 142.5 22.87 142.12"/>
    <polygon class="st0" points="18.55 135.67 19.16 136.72 20.04 136.9 20.03 135.76 18.55 135.67"/>
    <polygon class="st0" points="19.53 142.72 19.6 142.9 19.63 143.22 19.94 143.06 19.74 142.72 19.53 142.72"/>
    <polygon class="st0" points="18.39 142.96 19.15 142.9 19.33 142.04 18.77 141.96 18.39 142.96"/>
    <polygon class="st0" points="17.57 135.53 18.37 136.38 18.81 136.38 18.77 136.06 18.34 135.53 17.92 135.35 17.57 135.53"/>
    <polygon class="st0" points="17.16 143.67 18.04 143.98 18.75 143.01 17.96 143 17.16 143.67"/>
    <polygon class="st0" points="18.25 135 17.51 134.61 16.65 135.2 17.45 135.61 18.25 135"/>
    <polygon class="st0" points="16.92 133.86 16.03 134 15.68 134.35 15.9 134.84 17.07 134.26 16.92 133.86"/>
    <polygon class="st0" points="53.09 158.8 54.14 159.51 55.03 158.94 53.87 158.2 53.09 158.8"/>
    <polygon class="st0" points="156.48 190.09 155.79 191.15 155.99 191.65 156.76 191.75 157.44 190.67 157.59 189.67 156.89 189.64 156.48 190.09"/>
    <polygon class="st0" points="143.58 211.45 144 211.98 144.46 212.23 144.48 211.98 144.48 211.05 143.57 210.74 143.58 211.45"/>
    <polygon class="st0" points="150.52 198.74 151.82 199.65 152.31 199.52 151.91 198.29 150.52 198.74"/>
    <polygon class="st0" points="148.72 203.92 148.71 203.82 148.68 203.84 148.66 203.83 148.64 203.8 148.65 203.76 148.62 203.76 148.6 203.74 148.6 203.71 148.63 203.69 148.63 203.67 148.56 203.65 148.53 203.63 148.53 203.61 148.09 203.65 147.7 204.73 148.44 204.6 148.77 204 148.75 203.96 148.72 203.92"/>
    <polygon class="st0" points="290.3 140.94 289.9 139.69 288.64 139.35 289.13 140.71 290.3 140.94"/>
    <polygon class="st0" points="287.82 140.18 287.49 139.05 286.14 139.06 286.92 140.16 287.82 140.18"/>
    <polygon class="st0" points="331.28 155.73 331.27 155.73 328.62 157.25 328.6 157.25 323.75 158.49 317.38 158.91 313.96 160.62 313.95 160.62 311.78 160.45 310.55 160.26 306.96 161.96 304.45 161.8 301.06 157.68 300.27 157.58 299.97 157.3 298.89 157.04 297.2 157.14 297.21 157.13 297.22 157.13 299.48 156.04 300.81 154.89 299.77 152.37 299.73 152.39 288.96 142.78 284.95 140.77 280.88 130.32 280.87 130.3 276.3 127.02 276.3 127.01 276.28 127 275.39 124.02 274.9 117.15 273.81 113.77 273.8 113.75 273.79 113.75 271.36 111.46 270.82 111.03 269.74 110.79 268.84 109.84 268.6 109.01 268.17 105.04 268.15 105.01 264.68 99.32 262.02 94.75 261.99 94.71 261.39 92.14 261.38 92.11 260.31 91.04 260.27 91 260.81 90.15 260.82 90.15 257.94 87.15 257.93 87.14 256.26 84.1 255.17 82.02 256.17 81.27 256.2 81.32 259.37 87.14 262.7 89.68 263.48 88.94 263.72 87.14 265.59 82.59 265.49 82.29 262.96 75.39 262.78 75.02 262.75 74.97 255.95 76.04 254.28 75.23 253.37 74.28 251.94 74.44 250.97 74.16 249.64 73.86 247.65 74.36 246.79 74.4 245.61 75.13 243.54 76.31 241.45 76.89 234.41 75.23 225.15 73.59 225.11 73.58 225.09 73.52 224.27 72.32 224.23 72.27 217.25 71.27 217.22 71.26 216.37 69.58 216.34 69.52 211.96 68.4 209.58 68.88 206.15 69.87 203.62 72.32 204.29 75.22 203.52 77.29 201.69 78.76 198.72 78.91 193.25 76.18 185.87 74.5 185.82 74.49 183.93 70.86 183.9 70.81 180.68 69.93 177.17 68.85 176 68.4 174.97 68.59 173.98 68.82 172.85 68.82 168.72 67.3 167.36 66.87 167.27 66.84 166.19 64.59 166.16 64.52 165.45 64.58 165.55 65.62 164.07 65.36 164.01 65.35 162.31 63.07 166.49 59.3 166.53 57.36 165.71 56.57 165.63 56.5 165.14 56.43 165.07 56.42 164.44 54.04 166.9 51.82 166.57 51.16 166.53 51.07 166.07 51.17 165.25 51.82 163.97 52.53 163.53 52.21 163.43 52.14 163.61 51.82 163.38 51.66 163.28 51.59 163.14 50.92 163.14 50.89 161.3 50 158.43 50.69 157.61 51.32 156.61 51.6 154.29 51.82 153.17 51.98 151.02 51.07 149.77 51.72 146.71 51.6 146.19 51.82 143.26 52.78 139.43 51.82 137.48 51.77 136.86 51.69 136.28 51.82 134.68 52.26 133.06 52.51 132.37 52.6 127.77 53.22 126.8 53.44 125.87 53.65 123.82 54.12 120.3 56.38 120.27 56.39 117.33 56.85 116.34 57.01 114.15 58.68 113.2 58.91 111.58 59.32 111.56 59.31 111.02 59.16 108.7 58.57 108.58 58.54 108.5 58.56 108.43 58.5 108.43 58.49 108.46 58.36 107.48 58.73 105.87 58.74 104.87 58.85 104.79 58.86 104.73 58.85 104.61 58.82 104.55 58.78 102.91 58.96 102.9 58.96 102.2 58.98 99.78 57.92 99.65 57.86 98.89 57.14 98.57 56.05 98.48 55.95 98.41 55.88 98.24 55.89 96.94 56.26 96.08 56.67 95.4 58.36 94.83 59.66 92.81 63.17 92.42 63.71 92.03 63.99 91.18 64.53 90.27 64.99 89.61 65.32 88.59 65.69 88.03 65.89 87.48 66.1 83.6 68.8 83.14 69.15 81.48 72.48 80.05 74.51 80.01 76.56 80.19 77.99 80.89 78.95 80.82 79.24 80.21 80.85 79.2 82.01 77.5 84.08 74.59 85.94 71.84 87.92 67.36 89.01 66.08 90.17 66.3 90.17 66.25 90.22 65.95 91.03 64.37 94.31 60.84 96.56 59.06 102.62 55.88 105.5 52.6 112.17 51.33 112.94 50.56 114.61 50 118.42 50.07 118.63 49.98 118.86 50.12 118.75 50.83 118.16 50.92 118.26 52.96 120.51 52.94 124.32 52.38 124.88 53.42 126.2 54.13 128.76 54.19 130.85 52.23 138.43 52.15 139.4 51.32 140.97 49.52 143.3 49.07 143.79 49.58 144.56 51.13 146.8 52.06 148.72 52.06 148.72 52.02 149.22 51.97 149.28 51.87 149.24 51.24 150.9 51.23 150.91 51.36 153.92 51.55 153.89 54.07 153.57 51.36 153.93 53.73 155.76 55.19 155.29 55.74 156.19 55.8 156.17 55.87 156.09 55.9 156.06 56.01 156.04 56.05 156.01 56.06 155.96 56.15 155.85 56.25 155.79 58.52 155.48 58.42 155.56 56.86 155.99 56.62 156.83 56.74 157.3 56.68 158.18 57.02 158.86 58.66 159.58 58.67 159.57 59.72 160.27 60.48 162.11 63.94 163.82 64.27 164.68 64.22 164.85 64.21 164.97 64.19 165.06 64.2 165.17 64.18 165.24 64.19 165.3 64.22 165.36 64.26 165.41 64.31 165.44 64.31 165.45 64.32 165.45 64.35 165.48 64.38 165.56 64.48 165.71 64.53 165.73 64.6 165.75 64.63 165.78 65.54 167.67 66.61 170.41 65.91 170.12 65.98 170.66 66.83 170.99 68.08 174.07 72.99 176.44 74.85 177.9 75.26 178.11 76.63 179.39 77.7 179.78 80.36 182.08 81.61 183.3 84.6 185.26 88.24 186.73 89.49 187.11 98.11 184.06 103.24 183.53 104.75 183.52 105.88 183.74 107.86 184.08 110.72 184.93 112.17 185.35 113.2 184.83 114.18 184.32 116.36 183.51 117.33 183.14 119.05 182.49 120.3 182.15 123.53 181.24 125.71 179.93 126.16 179.67 126.8 179.5 127.5 179.32 128.37 179.13 128.92 179.04 130.54 178.85 130.81 178.88 130.82 178.87 130.8 178.86 130.82 178.85 130.96 178.82 130.99 178.8 131.1 178.8 131.98 178.74 133.06 178.74 138.8 178.76 139.15 178.87 141.4 180.76 143.06 183.91 144.85 186.74 147.92 187.27 152.28 186.68 154.86 186.3 154.83 184.87 156.34 185.27 156.26 185.29 159.49 188.96 160.46 188.93 161.85 191.69 161.51 195.49 161.32 197.38 159.76 200.15 160.54 201 160.23 202.39 159.36 206.28 158.03 209.22 159.29 211.98 160.14 213.33 162.35 216.89 166.91 221.65 169.89 224.96 169.87 225.21 170.07 225.45 170.61 226.22 171.39 229.26 171.38 229.26 172.08 230.43 172.19 230.41 173.24 230.16 172.09 230.43 175.09 237.75 176.33 241.66 174.89 243.18 176.73 247.84 178.16 251.02 178.01 254.17 177.04 256.7 174.88 258.34 172.8 261.55 172.76 262.22 169.58 271.48 169.51 277.01 170.18 281.18 172.97 284.8 177.32 293.41 180.78 298.72 180.86 303.24 180.85 305.47 181.92 308.08 182.34 309.27 182.43 312.59 184.19 318.72 186.07 321.75 189.03 324.36 190.64 326.55 191.76 329.65 194.44 334.83 194.97 335.56 196.53 337.9 196.8 340.55 196.18 341.33 194.97 341.73 194.97 342.53 197.15 345.32 197.09 347.01 198.6 347.19 202.18 349.74 203.73 350 205.74 348.85 209.01 348.45 213.98 346.8 218.89 346.6 223.23 347.46 233.46 344.56 239.36 340.61 246.05 334.55 250.55 327.86 255.2 323.5 257.25 316.97 257.26 315.07 256.1 313.61 256.45 312.88 258.25 310.83 263.81 308.67 265.8 307.73 267.97 305.03 268.22 300.57 266.27 292.23 264.81 290.28 265.18 288.04 270.71 283.86 275.57 278.89 282.75 276.01 283.19 275.53 286.32 273.43 289.74 268.42 290.17 265.97 289.13 262.35 288.92 261.46 288.53 252.8 289.19 251.5 288.55 248.81 286.61 247.7 283.83 239.65 284.47 235.13 284.6 234.17 283.11 232.56 282.75 232.24 282.08 231.72 281.78 230.09 282.75 227.6 283.41 226.2 283.44 224.68 282.75 224.19 280.31 222.48 280.12 222.35 277.2 220.09 277.2 220.09 280.13 222.35 280.31 222.48 282.74 224.19 283.43 224.67 283.45 224.68 283.54 224.71 284.42 224.41 285.27 222.54 285.78 221.71 287.28 218.47 287.28 218.44 287.39 216.41 287.4 216.41 289.79 215.49 292.01 213.33 293.22 212.17 293.38 211.97 299.99 203.9 301.35 202.44 308.61 196.96 310 196.18 315.94 190.81 319.23 187.22 326.78 174.46 328.99 170.62 331.59 165.77 333.16 156.32 331.28 155.73"/>
    <polygon class="st0" points="285.93 226.68 285.86 226.67 285.79 226.69 285.73 226.73 285.7 226.77 285.69 226.78 285.25 227.08 285.23 227.91 285.82 227.65 286.15 226.85 286.04 226.74 285.98 226.7 285.93 226.68"/>
    <polygon class="st0" points="283.82 229.95 283.45 230.36 283.39 231.05 283.88 231.2 284.17 231.92 284.84 231.89 284.26 230.3 283.82 229.95"/>
    <polygon class="st0" points="305.39 255.39 304.27 255.88 305.11 256.82 305.91 256.47 305.39 255.39"/>
    <polygon class="st0" points="302.89 256.88 302.24 256.09 300.79 256.43 301.89 257.21 302.89 256.88"/>
    <polygon class="st0" points="300.36 253.37 299.59 254.37 301.08 254.76 300.9 253.44 300.36 253.37"/>
    <polygon class="st0" points="325.35 255.76 323.89 257.18 323 260.54 321.21 262.32 319.69 262.05 320.06 263.75 316.51 268.13 316.73 269.63 314.7 269.33 305.26 273.4 303.38 278.2 304.5 284.99 305.17 288.49 300.07 297.09 302.18 302.84 302.01 306.11 303.02 308.08 304.5 310.07 308.66 311.68 314.91 309.74 316.6 308.08 317.53 305.64 322.43 290.18 324.22 284.9 326.07 279.55 326 277.14 327.59 273.64 326.96 269.89 327.65 269.66 328.31 270.98 329.47 270.9 329.94 268.39 327.67 259.11 325.35 255.76"/>
    <polygon class="st0" points="321.56 260.39 320.2 259.9 320.49 261.16 321.42 261.37 321.56 260.39"/>
    <polygon class="st0" points="383.62 286.58 382.85 287.6 383.78 288.25 384.32 287.27 383.62 286.58"/>
    <polygon class="st0" points="366.73 274.28 367.96 275 368.53 274.31 367.9 273.6 366.73 274.28"/>
    <polygon class="st0" points="359.78 287.52 360.63 288.49 361.39 287.76 360.92 286.98 359.78 287.52"/>
    <polygon class="st0" points="359.98 289.08 359.4 289.03 359.26 289.18 358.87 289.56 358.85 290.44 359.89 290.5 360.54 289.75 360.43 289.05 359.98 289.08"/>
    <polygon class="st0" points="354.28 247.35 355.14 248.2 355.74 247.99 355.01 246.43 354.28 247.35"/>
    <polygon class="st0" points="349.53 224.63 350.78 225.32 351.7 224.9 350.75 224.15 349.53 224.63"/>
    <polygon class="st0" points="331.9 248.84 333.01 248.89 333.26 247.34 332.65 247.44 331.9 248.84"/>
    <polygon class="st0" points="318.11 245.34 317.13 246.05 318.48 246.45 319.27 245.68 318.11 245.34"/>
  </g>
  <g>
    <g>
      <g>
        <line class="Graphic_x0020_Style_x0020_3" x1="319.61" y1="171.99" x2="319.45" y2="172.18"/>
        <polyline class="st7" points="318.83 172.93 318.1 173.8 313.81 178.09 309.2 182.23 307.9 183.96"/>
        <polyline class="Graphic_x0020_Style_x0020_3" points="307.61 184.35 307.46 184.55 307.21 184.58"/>
        <polyline class="st11" points="306.19 184.7 305.78 184.74 301.14 185.31 298.71 187.34 295.38 188.45"/>
        <line class="Graphic_x0020_Style_x0020_3" x1="294.89" y1="188.61" x2="294.65" y2="188.69"/>
      </g>
      <g>
        <line class="Graphic_x0020_Style_x0020_3" x1="262.28" y1="165.74" x2="262.05" y2="165.65"/>
        <polyline class="Graphic_x0020_Style_x0020_3" points="261.71 165.5 261.48 165.4 261.49 165.15"/>
        <line class="st3" x1="261.52" y1="164.48" x2="261.55" y2="163.8"/>
        <polyline class="Graphic_x0020_Style_x0020_3" points="261.57 163.46 261.58 163.21 261.41 163.03"/>
        <polyline class="st15" points="260.76 162.35 258.91 160.39 258.58 158.87 258.4 156.7 258.63 155.14"/>
        <polyline class="Graphic_x0020_Style_x0020_3" points="258.7 154.67 258.73 154.42 258.48 154.43"/>
        <line class="st6" x1="257.94" y1="154.44" x2="257.4" y2="154.45"/>
        <polyline class="Graphic_x0020_Style_x0020_3" points="257.13 154.46 256.88 154.46 256.74 154.67"/>
        <polyline class="Graphic_x0020_Style_x0020_3" points="256.32 155.3 256.18 155.5 255.93 155.51"/>
        <line class="st17" x1="255.23" y1="155.52" x2="254.54" y2="155.53"/>
        <polyline class="Graphic_x0020_Style_x0020_3" points="254.19 155.54 253.94 155.54 254.11 155.72"/>
        <polyline class="st10" points="254.78 156.41 255.05 156.68 255.23 158.87 250.91 164.24 249.41 164.66"/>
        <polyline class="Graphic_x0020_Style_x0020_3" points="248.95 164.79 248.71 164.86 248.5 164.71"/>
        <polyline class="st5" points="247.69 164.13 246.24 163.09 245.6 162.81"/>
        <polyline class="Graphic_x0020_Style_x0020_3" points="245.14 162.61 244.91 162.5 244.7 162.63"/>
        <polyline class="st12" points="243.87 163.14 243.56 163.32 243.33 163.89"/>
        <polyline class="Graphic_x0020_Style_x0020_3" points="243.15 164.34 243.06 164.58 242.81 164.63"/>
        <line class="st2" x1="242.22" y1="164.77" x2="241.63" y2="164.91"/>
        <line class="Graphic_x0020_Style_x0020_3" x1="241.34" y1="164.98" x2="241.09" y2="165.03"/>
      </g>
      <g>
        <line class="Graphic_x0020_Style_x0020_3" x1="236.55" y1="165.29" x2="236.3" y2="165.3"/>
        <line class="st13" x1="235.4" y1="165.36" x2="231.77" y2="165.6"/>
        <polyline class="Graphic_x0020_Style_x0020_3" points="231.32 165.63 231.07 165.65 230.89 165.47"/>
        <polyline class="st8" points="230.14 164.69 229.55 164.07 228.47 162.58"/>
        <polyline class="Graphic_x0020_Style_x0020_3" points="228.15 162.14 228 161.94 227.76 161.99"/>
        <line class="st4" x1="226.75" y1="162.19" x2="225.75" y2="162.39"/>
        <polyline class="Graphic_x0020_Style_x0020_3" points="225.24 162.49 225 162.53 224.86 162.74"/>
        <polyline class="st1" points="224.28 163.63 223.48 164.83 222.6 168.12 221.88 168.77"/>
        <line class="Graphic_x0020_Style_x0020_3" x1="221.5" y1="169.13" x2="221.31" y2="169.3"/>
      </g>
      <g>
        <line class="Graphic_x0020_Style_x0020_3" x1="268.56" y1="108.98" x2="268.34" y2="109.1"/>
        <polyline class="st16" points="267.38 109.61 265.75 110.46 265.19 111.44 262.8 113.27"/>
        <line class="Graphic_x0020_Style_x0020_3" x1="262.37" y1="113.6" x2="262.17" y2="113.75"/>
      </g>
      <g>
        <line class="Graphic_x0020_Style_x0020_3" x1="268.1" y1="186.06" x2="268.03" y2="185.82"/>
        <polyline class="Graphic_x0020_Style_x0020_3" points="267.85 185.21 267.77 184.97 267.54 184.89"/>
        <line class="st9" x1="266.55" y1="184.71" x2="264.15" y2="185.77"/>
        <line class="Graphic_x0020_Style_x0020_3" x1="263.67" y1="185.99" x2="263.45" y2="186.09"/>
      </g>
      <g>
        <line class="Graphic_x0020_Style_x0020_3" x1="165.06" y1="201.09" x2="165.31" y2="201.09"/>
        <line class="Graphic_x0020_Style_x0020_3" x1="165.94" y1="201.09" x2="166.19" y2="201.09"/>
      </g>
      <g>
        <polyline class="Graphic_x0020_Style_x0020_3" points="167.83 198.29 167.86 198.25 167.95 198.25 167.96 198.17 167.94 198.14 167.95 198.08 167.97 198.05 167.96 198.02"/>
        <line class="Graphic_x0020_Style_x0020_3" x1="167.88" y1="197.53" x2="167.84" y2="197.29"/>
      </g>
      <g>
        <polyline class="Graphic_x0020_Style_x0020_3" points="166.19 201.09 166.18 200.98 165.93 201.01"/>
        <line class="Graphic_x0020_Style_x0020_3" x1="165.31" y1="201.07" x2="165.06" y2="201.09"/>
      </g>
      <g>
        <polyline class="Graphic_x0020_Style_x0020_3" points="167.84 197.29 167.83 197.29 167.83 197.54"/>
        <line class="Graphic_x0020_Style_x0020_3" x1="167.83" y1="198.04" x2="167.83" y2="198.29"/>
      </g>
      <g>
        <line class="Graphic_x0020_Style_x0020_3" x1="258.38" y1="113.75" x2="258.58" y2="113.89"/>
        <polyline class="st14" points="259.58 114.6 259.99 114.89 260.71 114.78"/>
        <polyline class="Graphic_x0020_Style_x0020_3" points="261.31 114.7 261.56 114.66 261.7 114.45"/>
        <line class="Graphic_x0020_Style_x0020_3" x1="262.03" y1="113.96" x2="262.17" y2="113.75"/>
      </g>
      <g>
        <line class="Graphic_x0020_Style_x0020_3" x1="66.07" y1="90.18" x2="66.32" y2="90.18"/>
        <line class="st18" x1="67.36" y1="90.18" x2="83.99" y2="90.18"/>
        <line class="Graphic_x0020_Style_x0020_3" x1="84.51" y1="90.18" x2="84.76" y2="90.18"/>
      </g>
    </g>
    <g>
      <polyline class="Graphic_x0020_Style_x0020_3" points="264.73 255.48 264.25 255.63 263.97 255.15 264.57 254.94 264.73 255.48"/>
      <polyline class="Graphic_x0020_Style_x0020_3" points="265.83 253.41 264.57 253.6 263.44 256.14 264.41 261 265.44 261.34 269.18 265.79 269.31 268.51 269.52 269.49 269.52 269.53 269.36 271.54 267.27 272.72 267.07 273.52 267.22 276.51 265.56 274.68 263.75 272.75 263.3 270.74 263.88 269.36 264.26 268.53 263.5 265.21 260.45 265.73 259.17 264.4 258.7 263.49"/>
      <polyline class="Graphic_x0020_Style_x0020_3" points="100.68 101.27 97.21 99.13 84.76 91.64"/>
      <polyline class="Graphic_x0020_Style_x0020_3" points="84.76 91.64 84.76 92.38 84.35 97.05 70.93 97.12 70.93 103.82 70.76 107.57 67.48 109.05 66.15 110.6 66.72 115.51 66.24 116.47 61.38 116.48 50.89 116.55 49.97 118.86"/>
      <polyline class="Graphic_x0020_Style_x0020_3" points="69.94 143.84 71.55 143.25 72.15 140.63 73.37 140.44 75.37 142.13 76.8 141.08 81.98 140.34 82.79 140.78 97.9 140.78 98.46 137.57 97.35 135.65 97.26 134.84 96.78 130.38 96.21 125.45 96.06 124.01 96 123.46 94.37 108.93 93.94 105.55 93.8 104.31 93.47 101.27 100.68 101.27"/>
      <polyline class="Graphic_x0020_Style_x0020_3" points="217.99 278.62 214.12 279.39 209.96 280.14 201.88 279.61 199.24 279.3 197.03 277.7 195.45 277.59 192.42 277.59 185.27 277.6 179.72 277.66 178.34 277.52 176.24 275.9 169.5 277.02"/>
      <polyline class="Graphic_x0020_Style_x0020_3" points="203.73 308.27 203.73 302.26 203.81 297.1 207.74 296.55 207.88 292.59 207.88 284.98 208.09 281.62 214.12 280.62 217.14 280.2 218.75 281.94 219.85 281.27 221.44 280.18 225.57 279.26"/>
      <polyline class="Graphic_x0020_Style_x0020_3" points="130.73 155.75 130.82 154.44 132.46 153.64 133.06 154.19 135.71 156.62"/>
      <polyline class="Graphic_x0020_Style_x0020_3" points="121.7 142.86 121.5 145 122.82 147.52 124.74 149.03 124.84 150.84 125.86 151.59 126.25 151.89 126.8 152.21 127.6 152.69 129.53 152.7 129.63 154.23 130.73 155.75"/>
      <polyline class="Graphic_x0020_Style_x0020_3" points="170.52 107.44 163.23 111.69 153.08 117.72 145.26 124.02 144.61 124.41 138.45 125.62"/>
      <polyline class="Graphic_x0020_Style_x0020_3" points="182.98 109.59 179.81 111 176.57 108.8 170.52 107.44"/>
      <polyline class="Graphic_x0020_Style_x0020_3" points="138.45 125.62 138.45 130.36 138.13 136.73 136.79 139.96 135.03 141.25 133.06 141.35 126.8 141.68 126.17 141.71 124.24 142.76 121.7 142.86"/>
      <polyline class="Graphic_x0020_Style_x0020_3" points="135.71 156.62 135.36 157.88 136.37 159.84 136.67 160.96 135.99 162.96 133.06 167.36 132.1 168.82 132.17 169.58 132.02 170.34 131.9 172.58 132.02 173.41 132.06 178.05 131.97 178.42 131.97 178.75"/>
      <polyline class="Graphic_x0020_Style_x0020_3" points="156.34 185.27 157.42 183.32 157.67 180.97 160.02 178.4 160.59 178.1 161.01 178.17 162.04 176.59 164.89 176.13 167.21 178.18 168.44 177.7 170.05 174.65 171.6 171.25 171.55 170.34 173.7 168.8 174.33 166.33 176.4 163.16 177.71 159.83 178.62 158.53 181.23 157.17 181.45 154.68 179.78 153.51 179.18 150.84"/>
      <polyline class="Graphic_x0020_Style_x0020_3" points="177.31 148.24 173.93 149.32 172.32 150.87 168.39 149.67 165.02 149.68 162.62 150.3 160.89 151.92 158.26 151.87 154.99 150.31 153.16 149.91 150 151.19 149.55 151.17 149.04 150.58 146.79 148.37 143.82 147.65 139.83 148.21 138.21 149.14 137.94 150.17 135.97 153.37 135.71 156.62"/>
      <polyline class="Graphic_x0020_Style_x0020_3" points="241.26 216.67 242.47 216.4 242.91 216.89 243.85 216.87 244.95 216.31 245.07 214.94 245.9 215.37 246.79 215.05 247.5 215.3"/>
      <polyline class="Graphic_x0020_Style_x0020_3" points="243.54 211.03 242.96 211.53 242.47 211.98 242.1 212.32 241.91 213.33 241.26 216.67"/>
      <polyline class="Graphic_x0020_Style_x0020_3" points="215.68 159.83 216.25 160.77 218.83 164.13 218.85 166.32 218.15 167.28 218.6 168.88 221.31 169.3"/>
      <line class="Graphic_x0020_Style_x0020_3" x1="258.38" y1="113.75" x2="224.49" y2="113.75"/>
      <polyline class="Graphic_x0020_Style_x0020_3" points="272.46 145.96 272.43 141.76 274.17 137.48 274.08 135.87 274.26 134.26 275.69 134.21 278.62 132.27 279.65 131.97 280.86 130.3"/>
      <polyline class="Graphic_x0020_Style_x0020_3" points="262.28 165.74 263.38 160.95 264.14 160.21 265.42 160.4 265.99 158.87 266.26 156.59 267.07 155.64 268.89 152.58 270.09 152.34 271.92 148.26 272.05 147.94 272.46 145.96"/>
      <polyline class="Graphic_x0020_Style_x0020_3" points="224.49 113.75 224.49 122.06 220.98 122.22 220.34 124.14"/>
      <polyline class="Graphic_x0020_Style_x0020_3" points="63.84 152.53 65.35 152.61 66.22 152.67 68.58 153.8 73.52 153.63"/>
      <polyline class="Graphic_x0020_Style_x0020_3" points="52.06 148.73 53.97 148.72 56.57 148.54 56.78 148.08 59.19 148.04 59.51 148.45 60.77 148.99 63.19 149.08 63.17 149.74 61.79 150.18 60.35 149.83 59.89 149.76 57.77 148.89 57.07 149.69 55.58 149.69 55.15 150.19 54.77 150.49 51.8 150.5 51.23 150.91"/>
      <polyline class="Graphic_x0020_Style_x0020_3" points="51.36 153.93 54.79 153.47 56.49 153.2 57.98 152.49 58.84 152.52 59.89 152.53 63.84 152.53"/>
      <polyline class="Graphic_x0020_Style_x0020_3" points="73.52 153.63 73.33 150.98 72.53 149.8 71.41 149.59 70.94 146.76 69.94 143.84"/>
      <polyline class="Graphic_x0020_Style_x0020_3" points="69.94 143.84 68.06 142.51 67.84 142.32 65.09 138.56 63.8 138.14 63.86 138.03 59.89 136.01 58.68 135.95 53.41 136.72 52.22 138.43"/>
      <polyline class="Graphic_x0020_Style_x0020_3" points="78.07 169.96 76.6 170.51 76.82 167.69 76.85 167.62 74.62 164.16 73.05 163.66 71.32 163.92 70.43 164.2 69.17 164.34 67.37 166.8 65.53 167.67"/>
      <polyline class="Graphic_x0020_Style_x0020_3" points="72.98 176.44 74.48 174.73 75.7 173.88 76.73 172.31 78 170.66 78.07 169.96"/>
      <polyline class="Graphic_x0020_Style_x0020_3" points="300.26 157.59 300.14 157.79 299.04 159.57"/>
      <polyline class="Graphic_x0020_Style_x0020_3" points="294.65 188.69 291.03 193.58 290.86 196.21 290.86 200.14 290.87 202.39 290.87 203.34 291.08 208.53 292.32 210.64 293.1 211.98 293.21 212.17"/>
      <polyline class="Graphic_x0020_Style_x0020_3" points="221.31 169.3 220.94 170.34 221.46 170.84 223.83 171.43 225.34 172.67 226.05 174.57 230.36 177.6 230.18 178.77 231.19 180.18 233.45 181.44 234.65 184.37"/>
      <polyline class="Graphic_x0020_Style_x0020_3" points="234.65 184.37 238.27 187.23 240.26 186.46 242.2 186.99 243.33 185.97 244.45 186.27 245.9 188.14 247.57 190.2 248.76 190.69"/>
      <polyline class="Graphic_x0020_Style_x0020_3" points="269.91 186.05 269.07 182.9 267.49 182.84 266.62 181.84 265.93 179 264.05 176.84 259.74 173.08 258.21 172.79 257.84 172.03 258.97 170.25 261.13 170.14 262.45 169.26 262.45 167.97 262.28 165.74"/>
      <line class="Graphic_x0020_Style_x0020_3" x1="261.79" y1="187.64" x2="263.45" y2="186.09"/>
      <line class="Graphic_x0020_Style_x0020_3" x1="268.1" y1="186.06" x2="269.91" y2="186.05"/>
      <line class="Graphic_x0020_Style_x0020_3" x1="254.1" y1="316.9" x2="253.44" y2="313.21"/>
      <polyline class="Graphic_x0020_Style_x0020_3" points="185.03 173.96 186.61 174.16 189.47 172.95 190.61 173.91 192.43 172.77 196.33 171.9 199.79 169.59 199.59 167.99 203.7 167.47 206.94 166.21 210.46 162.73 211.08 161.06 213.64 159.67 215.68 159.83"/>
      <polyline class="Graphic_x0020_Style_x0020_3" points="179.18 150.84 180.97 151.21 182.58 154.4 183.23 155.11 183.4 158.97 183.54 160.8 185.19 163.51 181.86 163.88 179.69 163.66 179.06 165.37 183.91 170.07 184.04 170.34 185.03 173.96"/>
      <polyline class="Graphic_x0020_Style_x0020_3" points="220.34 124.14 213.45 120.46 207.99 117.63 201.19 114.21 200.36 113.79 187.48 107.91 182.98 109.59"/>
      <polyline class="Graphic_x0020_Style_x0020_3" points="182.98 109.59 183.92 115.76 186.9 120.59 185.9 124.02 185.49 127.14 185.31 130.36 185.16 133.15 185.1 134.75 184.87 135.2 180.35 139.96 177.36 144.88 176.79 145.62 177.31 148.24"/>
      <line class="Graphic_x0020_Style_x0020_3" x1="177.31" y1="148.24" x2="179.18" y2="150.84"/>
      <polyline class="Graphic_x0020_Style_x0020_3" points="215.68 159.83 215.95 158.3 214.53 156.82 214.46 155.1 213.65 152.69 211.3 152.02 212.84 149.81 212.82 147.4 214.05 146.53 213.98 144.86 215.28 142.9 216.65 139.89 220.29 139.5 220.34 124.14"/>
      <polyline class="Graphic_x0020_Style_x0020_3" points="127.5 179.32 127.99 178.9 127.47 177.22 127.28 176.46 127.6 173.94 127.54 173.49 127.43 170.42 127.48 169.53 126.69 166.58 126.36 163.68 125.86 163.37 124.89 162.75 124.04 161.66 124.52 159.52"/>
      <polyline class="Graphic_x0020_Style_x0020_3" points="124.52 159.52 122.5 159.4 120.29 158.95 120.17 158.93"/>
      <polyline class="Graphic_x0020_Style_x0020_3" points="120.17 158.93 120.29 160 120.37 160.7 122.22 162.48 122.44 163.58 122.25 163.94 122.89 168.36 122.32 168.9 123.65 170.34 123.31 172.38 123.4 175.05 123.07 176.77 123.71 178.15 125.7 179.38 125.71 179.6 125.71 179.93"/>
      <polyline class="Graphic_x0020_Style_x0020_3" points="130.73 155.75 129.13 157.71 126.58 157.6 124.65 159.36 124.52 159.52"/>
      <polyline class="Graphic_x0020_Style_x0020_3" points="198.03 190.82 197.92 189.15 197.71 187.27 198.1 187.12 199.67 185.42 200.02 184.71 203.14 184.2 205.67 186.41 212.18 187.68 213.84 188.09 215.78 185.43 217.81 185.95 222.35 184.05 225.01 184.59 226.52 183.22 230.65 184.07 232.68 183.79 234.65 184.37"/>
      <polyline class="Graphic_x0020_Style_x0020_3" points="109.58 165.77 107.5 163.93 105.87 163.92 104.57 164.05 102.84 165.35 100.52 164.38 99.5 162.47 97.86 161.87"/>
      <polyline class="Graphic_x0020_Style_x0020_3" points="187.92 196 187.23 193.06 184.02 189.82 181.66 184.4 181.27 180.96 180.56 180.11 182.73 177.44 183.87 175.21 185.03 173.96"/>
      <polyline class="Graphic_x0020_Style_x0020_3" points="175.91 196.23 177.51 196.23 180.63 196.26 187.44 197.98 187.92 196"/>
      <polyline class="Graphic_x0020_Style_x0020_3" points="172.08 230.44 175.24 229.69 182.06 229.69 187.61 229.66 189.74 230.32 191.71 235.94 193.2 238.29 193.48 238.95 200.82 238.45 201.91 234.67 203.59 234.37 205.95 234.09 206.61 235.52 211.16 235.55 211.33 237.11 211.51 239.33 211.75 239.9 211.32 244.67 212.89 246.89 213.33 249.34 213.02 250.74 213.83 251.51 220.34 250.56"/>
      <polyline class="Graphic_x0020_Style_x0020_3" points="175.11 224.74 173.07 226.04 172.6 228.9 171.38 229.27"/>
      <polyline class="Graphic_x0020_Style_x0020_3" points="242.9 223.77 241.98 219.21 242.09 218.86 242.14 218.16 241.26 216.67"/>
      <polyline class="Graphic_x0020_Style_x0020_3" points="170.6 226.23 173.73 223.51 175.11 224.74"/>
      <polyline class="Graphic_x0020_Style_x0020_3" points="198.03 190.82 193.01 189.95 189.88 190.79 188.96 193.95 187.92 196"/>
      <polyline class="Graphic_x0020_Style_x0020_3" points="175.11 224.74 177.14 225.23 178.43 223.98 180.47 223.32 180.52 224.92 181.44 225.58 183.28 224.03 183.52 223.75 186.7 221.68 186.98 221.01 187.89 217.47 188.21 214.67 189.25 213.1 189.9 211.98 190.01 211.8 191.19 210.64 193.47 208.37 194.08 206.52 194.96 203.84 195.14 202.39 195.75 197.32 198.03 190.82"/>
      <polyline class="Graphic_x0020_Style_x0020_3" points="296.72 153.39 297.99 153.78 299.72 152.39"/>
      <line class="Graphic_x0020_Style_x0020_3" x1="84.76" y1="91.64" x2="84.76" y2="90.18"/>
      <polyline class="Graphic_x0020_Style_x0020_3" points="299.04 159.57 297.55 159.21 294.18 159.54 294.23 157.03 295.21 155.63 296.72 153.39"/>
      <polyline class="Graphic_x0020_Style_x0020_3" points="296.72 153.39 293.2 149.43 292 148.67 291.3 147.64 288.25 145.5 286.67 145.18 285.25 144.51 281.19 145.15 279.53 144.21 278.03 143.63 276.5 145.94 275.53 145.41 272.46 145.96"/>
      <polyline class="Graphic_x0020_Style_x0020_3" points="175.91 196.23 169.03 195.7 167.88 196.23"/>
      <polyline class="Graphic_x0020_Style_x0020_3" points="166.91 221.66 168.12 220.14 169.86 220.67 170 218.93 168.83 216.68 169.44 215.45 170.79 215.31 172.21 215.29 172.48 214.95 172.43 213.08 173.66 213.13 174.7 215.1 176.44 215.28 177.78 214.55 179.3 215.63 180.37 213.29 180.53 211.98 180.73 210.17 180.78 208.13 180.79 207.53 179.44 206.52 178.32 205.68 178.66 203.85 180 202.39 180.7 201.62 179.98 199.54 175.33 200.12 175.91 196.23"/>
      <polyline class="Graphic_x0020_Style_x0020_3" points="120.17 158.93 117.9 159.51 117.32 159.49 116.35 159.46 114.81 159.41 113.19 159.44 110.71 159.47 109.47 159.49 108.54 160.72 109.16 163 109.34 165.15 109.58 165.77"/>
      <polyline class="Graphic_x0020_Style_x0020_3" points="109.58 165.77 109.99 168.7 110.29 170.34 107.98 175.9 107.8 176.12 107.39 178.23 109.43 183.03 109.08 183.9 107.85 184.08"/>
      <polyline class="Graphic_x0020_Style_x0020_3" points="85.57 173.82 86.6 173.67 87.76 171.89 86.59 170.66 86.54 170.13 88.7 169.94 87.85 168.31 88.67 167.52 86.94 165.39 87.62 162.95"/>
      <polyline class="Graphic_x0020_Style_x0020_3" points="58.66 159.58 59.05 158.86 59.45 157.95 59.89 157.4 60.92 157.19 62.3 156.89 63.7 156.38 63.31 154.53 63.91 154.12 63.84 152.53"/>
      <polyline class="Graphic_x0020_Style_x0020_3" points="167.88 196.23 163.7 196.21 162.31 196.22 161.5 195.49"/>
      <polyline class="Graphic_x0020_Style_x0020_3" points="166.19 201.09 167.71 200.85 167.83 198.29"/>
      <polyline class="Graphic_x0020_Style_x0020_3" points="160.53 201 163.06 201.09 165.06 201.09"/>
      <line class="Graphic_x0020_Style_x0020_3" x1="167.84" y1="197.29" x2="167.88" y2="196.23"/>
      <polyline class="Graphic_x0020_Style_x0020_3" points="294.65 188.69 293.2 188.72 291.62 188.72 289.57 187.64 285.85 189.87 283.92 190.71 282.97 190.56 278.83 190.07 273.11 186.79 270.35 186.77 269.91 186.05"/>
      <polyline class="Graphic_x0020_Style_x0020_3" points="89.49 187.12 89.22 185.2 90 182.29 90.04 181.8 87.83 179.29 85.04 178.2 86.1 177.11 85.57 173.82"/>
      <polyline class="Graphic_x0020_Style_x0020_3" points="85.57 173.82 85.12 173.25 84.16 174.45 82.93 175.35 81.38 174.62 81.94 173.04 81.24 170.66 79.64 169.91 78.07 169.96"/>
      <polyline class="Graphic_x0020_Style_x0020_3" points="160.41 79.52 159.96 80.18 161.79 85.3 162 89.57 161.72 94.42 159.94 96.29 162.39 100.63 163.47 102.93 166.17 103.33 168.17 104.58 169.05 104.72 170.52 107.44"/>
      <polyline class="Graphic_x0020_Style_x0020_3" points="224.49 113.75 224.49 111.73 224.48 103.83 224.48 103.26 224.47 100.93 224.47 100.2 224.48 99.28 224.48 95.24 224.49 92.75 224.49 88.4 224.44 83.62 223.29 79.82 224.41 77.41 223.91 75.24 223.88 74.72 224.22 74.39 224.74 74.04 225.08 73.52"/>
      <polyline class="Graphic_x0020_Style_x0020_3" points="84.76 90.18 84.76 87.49 85.1 85.85 88.78 83.37 93.98 82.28 97.9 82.29 99.44 80.47 102.87 78.36 105.51 77.7 105.39 74.37 107.24 73.35 108.73 72.96 109.29 71.69 110.71 71.69 113.19 71.7 114.84 71.7 116.07 70.44 116.23 69.85 114.58 68.4 113.9 65.21 113.88 63.43 113.28 61.43 112.2 59.94 111.56 59.31"/>
      <polyline class="Graphic_x0020_Style_x0020_3" points="97.86 161.87 98.01 159.41 98.93 158.22 99.1 156 101.1 155.33 101.44 155.1 102.48 153.71 102.14 152.34 103.17 152.32 102.98 150.45 104.24 149 105.87 150.35 106.44 150.53 107.39 148.45 108.48 148.59 109.79 146.31 110.71 146.35 112 146.41 113.33 144.99 116.46 143.61 117.64 142.59 118.84 142.51 120.29 142.69 121.7 142.86"/>
      <polyline class="Graphic_x0020_Style_x0020_3" points="87.62 162.95 89.25 161.87 90.89 162.69 93.11 162.16 93.29 161.16 94.63 160.88 95.43 162.67 97.86 161.87"/>
      <polyline class="Graphic_x0020_Style_x0020_3" points="138.45 125.62 134.47 126.15 133.88 125.53 134.28 124.02 133.8 122.64 133.06 122.38 131.01 121.67 126.8 119.42 125.86 118.92 124.86 117.04 120.65 114.23 120.29 113.99 117.32 112.08 110.71 107.78 109.17 106.78 108.17 106.14 105.87 104.64 100.68 101.27"/>
      <polyline class="Graphic_x0020_Style_x0020_3" points="73.52 153.63 73.03 154.45 73.87 155.26 74.37 155.2 75.29 154.66 76.39 155.53 77.61 154.61 78.87 154.72 80.27 155.04 82.28 153.5 83.2 153.56 84.21 156.67 85.32 157.46 85.77 157.99 85.13 159.21 86.2 159.61 86.41 161.48 87.62 162.95"/>
      <polyline class="Graphic_x0020_Style_x0020_3" points="225.58 279.26 228.6 284.3 229.39 286.47 231.55 288.01 233.5 288.88 234.03 290.51 235.54 290.74 235.76 292.81 237 294.97 240.7 295.75 242.65 297.58"/>
      <polyline class="Graphic_x0020_Style_x0020_3" points="250.67 298.54 255.22 293.93 255.53 293.97 255.69 291.38 257.82 288.2 256.73 283.8 257.77 281.5 257.89 277.37 257.66 277.01 257.36 274.92 256.7 274.75 250.01 271.87 247.3 271.7 246.98 270.24"/>
      <polyline class="Graphic_x0020_Style_x0020_3" points="242.65 297.58 249.89 298.17 250.67 298.54"/>
      <polyline class="Graphic_x0020_Style_x0020_3" points="246.98 270.24 246.45 270.34 243.94 270.34 240.78 271.61 240.08 273.81 237.11 275.41 232.16 280.21 225.58 279.26"/>
      <polyline class="Graphic_x0020_Style_x0020_3" points="156.6 51.6 154.63 53.57 155.5 54.05 155.14 55.7 155.4 57.11 155.28 60.78 154.51 61.62 153.02 62.8 152.13 63.99 152.85 66.23 154.78 68.26 155.41 70.06 156.13 70.49 156.83 70.91 157.26 71.17 158.41 71.8 159.3 75.24 160.05 78.15 160.41 79.52"/>
      <polyline class="Graphic_x0020_Style_x0020_3" points="160.41 79.52 163.09 77.46 163.14 75.24 163.3 73.73 167.03 71.11 168.13 70.68 168.72 67.3"/>
      <polyline class="Graphic_x0020_Style_x0020_3" points="247.5 215.3 247.36 216.73 247.26 217.52 248.76 217.65 247.87 219.23 246.86 220.75 246 222.19 243.83 223.77 242.9 223.77"/>
      <polyline class="Graphic_x0020_Style_x0020_3" points="242.9 223.77 242.61 226.05 243.66 231.62 246.38 234.93 248.54 239.68"/>
      <polyline class="Graphic_x0020_Style_x0020_3" points="283.43 224.68 282.74 224.19 280.3 222.48 280.11 222.36 277.2 220.09 277.17 218.56 275.88 217.26 274.94 216.73 274.38 216.41 270.15 214.01 267.06 212.27 266.54 211.98 264.88 211.04 262.23 209.54 261.56 209.41"/>
      <polyline class="Graphic_x0020_Style_x0020_3" points="265.83 253.41 269.54 252.9 271.91 254.06 273.72 253.43 276.03 253.74 278.92 252.1 280.46 252.74 282.74 251.67 288.54 248.82"/>
      <polyline class="Graphic_x0020_Style_x0020_3" points="257.5 244.36 260.35 245.21 260.48 245.23 261.59 245.68 262.16 244.89 263.87 246.93 264.22 249.08 265.83 253.41"/>
      <polyline class="Graphic_x0020_Style_x0020_3" points="247.21 209.66 247.54 210.64 248.04 211.98 248.67 213.62 247.5 215.3"/>
      <polyline class="Graphic_x0020_Style_x0020_3" points="248.76 190.69 249.05 191.23 248.57 192.25 248.82 193.67 248.52 194.24 248.56 195.17 249.45 195.33 250.66 196.29 249.71 197.52 247.52 199.99 245.89 201.57 245.18 201.77 245.07 202.39 244.87 203.43 244.08 204.98 244.04 206.18 243.99 206.66 243.74 208.13 243.51 209.44 243.54 211.03"/>
      <polyline class="Graphic_x0020_Style_x0020_3" points="261.56 209.41 261.55 208.62 261.63 206.67 261.64 205.4 261.74 204.47 262.42 202.83 263.13 202.11 263.34 202.03 263.88 200.99 264.05 200.65 264.23 200.69 264.25 200.5 265.24 200.02 265.11 199.58 265.87 198.17 265.71 195.76 265.77 195.06 265.06 193.67 264.16 192.32 263.51 189.9 261.79 187.64"/>
      <polyline class="Graphic_x0020_Style_x0020_3" points="243.54 211.03 244.49 210.71 245.9 210.87 246.49 210.06 247.21 209.66"/>
      <polyline class="Graphic_x0020_Style_x0020_3" points="261.79 187.64 259.83 189.64 259.05 189.59 257.44 189.26 254.37 190.68 253.79 190.37 253.54 190.37 252.69 189.36 251.53 190.12 249.8 189.71 248.76 190.69"/>
      <polyline class="Graphic_x0020_Style_x0020_3" points="247.21 209.66 250.51 209.41 261.56 209.41"/>
      <line class="Graphic_x0020_Style_x0020_3" x1="262.17" y1="113.75" x2="273.79" y2="113.75"/>
      <polyline class="Graphic_x0020_Style_x0020_3" points="263.45 186.09 266.73 186.07 268.1 186.06"/>
      <polyline class="Graphic_x0020_Style_x0020_3" points="241.09 165.03 241.03 163.37 240.38 162.98 236.59 163.05 236.25 164.65 236.55 165.29"/>
      <polyline class="Graphic_x0020_Style_x0020_3" points="236.55 165.29 236.55 166.39 240.39 166.36 241.09 165.03"/>
      <line class="Graphic_x0020_Style_x0020_3" x1="262.17" y1="113.75" x2="258.38" y2="113.75"/>
      <polyline class="Graphic_x0020_Style_x0020_3" points="242.65 297.58 238.22 299.37 232.63 304.04 232.12 306.01 230.34 307.77 229.42 307.95 228.73 308.08 228.16 308.4 227.24 311.2 226.14 312.26 223.22 312.64 222.45 312.4 218.06 310.51 216.62 310.52 215.64 311.27 214.65 313.92 210.61 316.85 206.77 316.92 206.71 312.02 205.35 309.54 203.73 308.27"/>
      <polyline class="Graphic_x0020_Style_x0020_3" points="237.86 324.65 239.5 324.28 240.33 324.95 240.57 324.94 242.63 326.68 242.38 328.2 241.7 328.94 241.68 329.5 241.15 330.05 238.47 330.74 237.12 332.68 235.11 331.77 234.35 331.4 233.46 329.5 233.14 328.66 234.01 328.11 234.92 327.07 235.48 326.29 237.86 324.65"/>
      <line class="Graphic_x0020_Style_x0020_3" x1="257.24" y1="316.97" x2="254.1" y2="316.9"/>
      <polyline class="Graphic_x0020_Style_x0020_3" points="253.44 313.21 253.54 308.08 253.34 306.13 253.06 305.02 251.92 303.25 250.67 298.54"/>
      <polyline class="Graphic_x0020_Style_x0020_3" points="203.73 308.27 203.73 311.78 203.58 323.32 200.19 325.62 194.96 324.92 193.08 324.51 191.39 322.03 189.02 324.36"/>
      <polyline class="Graphic_x0020_Style_x0020_3" points="254.1 316.9 253.43 318.26 253.28 318.81 252.56 318.88 251.44 318.88 250.52 318.57 248.94 316.68 248.97 314.72 250.72 312.76 252.57 313.14 253.44 313.21"/>
      <polyline class="Graphic_x0020_Style_x0020_3" points="220.34 250.56 219.84 258.79 212.4 259.41 212.04 262.37 212.04 272.53 217.99 278.62"/>
      <line class="Graphic_x0020_Style_x0020_3" x1="225.57" y1="279.26" x2="225.58" y2="279.26"/>
      <polyline class="Graphic_x0020_Style_x0020_3" points="248.54 239.68 243.54 240.18 243.45 240.11 241.32 240.59 238.8 243.78 239.61 245.84 239.67 249.47 238.65 253.37 239.04 254.55 241.54 256.73 244.47 255.8 244.37 260.88 243.28 260.43 241.23 261.03 237.8 256.86 235.37 256.28 233.44 253.63 231.92 254.99 226.54 254.03 225.33 252.13 222.31 252.68 220.89 250.7 220.34 250.56"/>
      <polyline class="Graphic_x0020_Style_x0020_3" points="246.98 270.24 246.14 267.64 258.7 263.49"/>
      <polyline class="Graphic_x0020_Style_x0020_3" points="258.7 263.49 257.79 263.29 256.98 262.23 257.39 260.82 257.76 258.02 259.97 256.68 258.99 256.06 258.71 253.47 258.97 251.02 260.64 249.21 257.5 244.36"/>
      <polyline class="Graphic_x0020_Style_x0020_3" points="217.99 278.62 224.4 278.27 225.57 279.26"/>
      <polyline class="Graphic_x0020_Style_x0020_3" points="257.5 244.36 254.31 243.04 254.01 242.93 250.16 241.05 249.43 240.83 248.54 239.68"/>
      <line class="Graphic_x0020_Style_x0020_3" x1="98.58" y1="54.88" x2="98.53" y2="54.88"/>
      <polyline class="Graphic_x0020_Style_x0020_3" points="108.57 58.54 108.49 58.56 108.42 58.5 108.45 58.36 108.48 58.34"/>
      <line class="Graphic_x0020_Style_x0020_3" x1="98.56" y1="56.05" x2="98.4" y2="55.88"/>
      <polyline class="Graphic_x0020_Style_x0020_3" points="299.04 159.57 298.22 161.55 300.38 165.02 303.29 167.7 306.2 168.77 315.84 171.98 319.61 171.99"/>
    </g>
  </g>
</svg>