<?xml version="1.0" encoding="UTF-8"?>
<svg id="Layer_1" xmlns="http://www.w3.org/2000/svg" version="1.1" viewBox="0 0 400 400">
  <!-- Generator: Adobe Illustrator 30.2.1, SVG Export Plug-In . SVG Version: 2.1.1 Build 1)  -->
  <defs>
    <style>
      .st0 {
        fill: #00aac5;
      }

      .st1 {
        stroke-dasharray: .49 .97;
      }

      .st1, .st2, .st3, .st4, .st5, .st6, .st7, .st8, .st9, .st10, .st11, .st12, .st13, .st14, .st15, .st16, .st17, .Graphic_x0020_Style {
        fill: none;
        stroke: #fff;
        stroke-linecap: round;
        stroke-linejoin: round;
        stroke-width: .25px;
      }

      .st2 {
        stroke-dasharray: .54 1.09;
      }

      .st3 {
        stroke-dasharray: .53 1.06;
      }

      .st4 {
        stroke-dasharray: .3 .61;
      }

      .st5 {
        stroke-dasharray: .51 1.02;
      }

      .st6 {
        stroke-dasharray: .61 1.22;
      }

      .st7 {
        stroke-dasharray: .27 .54;
      }

      .st8 {
        stroke-dasharray: .34 .68;
      }

      .st9 {
        stroke-dasharray: .45 .91;
      }

      .st10 {
        stroke-dasharray: .54 1.08;
      }

      .st11 {
        stroke-dasharray: .52 1.05;
      }

      .st12 {
        stroke-dasharray: .48 .96;
      }

      .st13 {
        stroke-dasharray: .49 .97;
      }

      .st14 {
        stroke-dasharray: .5 1;
      }

      .st15 {
        stroke-dasharray: .47 .94;
      }

      .st16 {
        stroke-dasharray: .51 1.02;
      }

      .st17 {
        stroke-dasharray: .35 .7;
      }
    </style>
  </defs>
  <g>
    <polygon class="st0" points="272.57 107.32 271.57 106.65 270.37 107.19 271.67 107.8 272.57 107.32"/>
    <polygon class="st0" points="25.08 138.72 26.31 138.86 26.77 138.04 25.69 137.63 25.08 138.72"/>
    <polygon class="st0" points="25.79 136.43 25.94 134.72 24.85 134.96 25.18 136.19 25.79 136.43"/>
    <polygon class="st0" points="24.15 141.38 23.97 142.45 24.69 142.71 25.19 142.33 24.72 141.11 24.15 141.38"/>
    <polygon class="st0" points="22.87 142.12 22.57 141.84 22.14 142.03 22.35 142.98 22.97 143.24 23.39 142.98 23.27 142.5 22.87 142.12"/>
    <polygon class="st0" points="18.55 135.67 19.16 136.72 20.04 136.9 20.03 135.76 18.55 135.67"/>
    <polygon class="st0" points="19.53 142.72 19.6 142.9 19.63 143.22 19.94 143.06 19.74 142.72 19.53 142.72"/>
    <polygon class="st0" points="18.39 142.96 19.15 142.9 19.33 142.04 18.77 141.96 18.39 142.96"/>
    <polygon class="st0" points="17.57 135.53 18.37 136.38 18.81 136.38 18.77 136.06 18.34 135.53 17.92 135.35 17.57 135.53"/>
    <polygon class="st0" points="17.16 143.67 18.04 143.98 18.75 143.01 17.96 143 17.16 143.67"/>
    <polygon class="st0" points="18.25 135 17.51 134.61 16.65 135.2 17.45 135.61 18.25 135"/>
    <polygon class="st0" points="16.92 133.86 16.03 134 15.68 134.35 15.9 134.84 17.07 134.26 16.92 133.86"/>
    <polygon class="st0" points="53.09 158.8 54.14 159.51 55.03 158.94 53.87 158.2 53.09 158.8"/>
    <polygon class="st0" points="156.48 190.09 155.79 191.15 155.99 191.65 156.76 191.75 157.44 190.67 157.59 189.67 156.89 189.64 156.48 190.09"/>
    <polygon class="st0" points="143.58 211.45 144 211.98 144.46 212.23 144.48 211.98 144.48 211.05 143.57 210.74 143.58 211.45"/>
    <polygon class="st0" points="150.52 198.74 151.82 199.65 152.31 199.52 151.91 198.29 150.52 198.74"/>
    <polygon class="st0" points="148.72 203.92 148.71 203.82 148.68 203.84 148.66 203.83 148.64 203.8 148.65 203.76 148.62 203.76 148.6 203.74 148.6 203.71 148.63 203.69 148.63 203.67 148.56 203.65 148.53 203.63 148.53 203.61 148.09 203.65 147.7 204.73 148.44 204.6 148.77 204 148.75 203.96 148.72 203.92"/>
    <polygon class="st0" points="290.3 140.94 289.9 139.69 288.64 139.35 289.13 140.71 290.3 140.94"/>
    <polygon class="st0" points="287.82 140.18 287.49 139.05 286.14 139.06 286.92 140.16 287.82 140.18"/>
    <polygon class="st0" points="331.28 155.73 331.27 155.73 328.62 157.25 328.6 157.25 323.75 158.49 317.38 158.91 313.96 160.62 313.95 160.62 311.78 160.45 310.55 160.26 306.96 161.96 304.45 161.8 301.06 157.68 300.27 157.58 299.97 157.3 298.89 157.04 297.2 157.14 297.21 157.13 297.22 157.13 299.48 156.04 300.81 154.89 299.77 152.37 299.73 152.39 288.96 142.78 284.95 140.77 280.88 130.32 280.87 130.3 276.3 127.02 276.3 127.01 276.28 127 275.39 124.02 274.9 117.15 273.81 113.77 273.8 113.75 273.79 113.75 271.36 111.46 270.82 111.03 269.74 110.79 268.84 109.84 268.6 109.01 268.17 105.04 268.15 105.01 264.68 99.32 262.02 94.75 261.99 94.71 261.39 92.14 261.38 92.11 260.31 91.04 260.27 91 260.81 90.15 260.82 90.15 257.94 87.15 257.93 87.14 256.26 84.1 255.17 82.02 256.17 81.27 256.2 81.32 259.37 87.14 262.7 89.68 263.48 88.94 263.72 87.14 265.59 82.59 265.49 82.29 262.96 75.39 262.78 75.02 262.75 74.97 255.95 76.04 254.28 75.23 253.37 74.28 251.94 74.44 250.97 74.16 249.64 73.86 247.65 74.36 246.79 74.4 245.61 75.13 243.54 76.31 241.45 76.89 234.41 75.23 225.15 73.59 225.11 73.58 225.09 73.52 224.27 72.32 224.23 72.27 217.25 71.27 217.22 71.26 216.37 69.58 216.34 69.52 211.96 68.4 209.58 68.88 206.15 69.87 203.62 72.32 204.29 75.22 203.52 77.29 201.69 78.76 198.72 78.91 193.25 76.18 185.87 74.5 185.82 74.49 183.93 70.86 183.9 70.81 180.68 69.93 177.17 68.85 176 68.4 174.97 68.59 173.98 68.82 172.85 68.82 168.72 67.3 167.36 66.87 167.27 66.84 166.19 64.59 166.16 64.52 165.45 64.58 165.55 65.62 164.07 65.36 164.01 65.35 162.31 63.07 166.49 59.3 166.53 57.36 165.71 56.57 165.63 56.5 165.14 56.43 165.07 56.42 164.44 54.04 166.9 51.82 166.57 51.16 166.53 51.07 166.07 51.17 165.25 51.82 163.97 52.53 163.53 52.21 163.43 52.14 163.61 51.82 163.38 51.66 163.28 51.59 163.14 50.92 163.14 50.89 161.3 50 158.43 50.69 157.61 51.32 156.61 51.6 154.29 51.82 153.17 51.98 151.02 51.07 149.77 51.72 146.71 51.6 146.19 51.82 143.26 52.78 139.43 51.82 137.48 51.77 136.86 51.69 136.28 51.82 134.68 52.26 133.06 52.51 132.37 52.6 127.77 53.22 126.8 53.44 125.87 53.65 123.82 54.12 120.3 56.38 120.27 56.39 117.33 56.85 116.34 57.01 114.15 58.68 113.2 58.91 111.58 59.32 111.56 59.31 111.02 59.16 108.7 58.57 108.58 58.54 108.5 58.56 108.43 58.5 108.43 58.49 108.46 58.36 107.48 58.73 105.87 58.74 104.87 58.85 104.79 58.86 104.73 58.85 104.61 58.82 104.55 58.78 102.91 58.96 102.9 58.96 102.2 58.98 99.78 57.92 99.65 57.86 98.89 57.14 98.57 56.05 98.48 55.95 98.41 55.88 98.24 55.89 96.94 56.26 96.08 56.67 95.4 58.36 94.83 59.66 92.81 63.17 92.42 63.71 92.03 63.99 91.18 64.53 90.27 64.99 89.61 65.32 88.59 65.69 88.03 65.89 87.48 66.1 83.6 68.8 83.14 69.15 81.48 72.48 80.05 74.51 80.01 76.56 80.19 77.99 80.89 78.95 80.82 79.24 80.21 80.85 79.2 82.01 77.5 84.08 74.59 85.94 71.84 87.92 67.36 89.01 66.08 90.17 66.3 90.17 66.25 90.22 65.95 91.03 64.37 94.31 60.84 96.56 59.06 102.62 55.88 105.5 52.6 112.17 51.33 112.94 50.56 114.61 50 118.42 50.07 118.63 49.98 118.86 50.12 118.75 50.83 118.16 50.92 118.26 52.96 120.51 52.94 124.32 52.38 124.88 53.42 126.2 54.13 128.76 54.19 130.85 52.23 138.43 52.15 139.4 51.32 140.97 49.52 143.3 49.07 143.79 49.58 144.56 51.13 146.8 52.06 148.72 52.06 148.72 52.02 149.22 51.97 149.28 51.87 149.24 51.24 150.9 51.23 150.91 51.36 153.92 51.55 153.89 54.07 153.57 51.36 153.93 53.73 155.76 55.19 155.29 55.74 156.19 55.8 156.17 55.87 156.09 55.9 156.06 56.01 156.04 56.05 156.01 56.06 155.96 56.15 155.85 56.25 155.79 58.52 155.48 58.42 155.56 56.86 155.99 56.62 156.83 56.74 157.3 56.68 158.18 57.02 158.86 58.66 159.58 58.67 159.57 59.72 160.27 60.48 162.11 63.94 163.82 64.27 164.68 64.22 164.85 64.21 164.97 64.19 165.06 64.2 165.17 64.18 165.24 64.19 165.3 64.22 165.36 64.26 165.41 64.31 165.44 64.31 165.45 64.32 165.45 64.35 165.48 64.38 165.56 64.48 165.71 64.53 165.73 64.6 165.75 64.63 165.78 65.54 167.67 66.61 170.41 65.91 170.12 65.98 170.66 66.83 170.99 68.08 174.07 72.99 176.44 74.85 177.9 75.26 178.11 76.63 179.39 77.7 179.78 80.36 182.08 81.61 183.3 84.6 185.26 88.24 186.73 89.49 187.11 98.11 184.06 103.24 183.53 104.75 183.52 105.88 183.74 107.86 184.08 110.72 184.93 112.17 185.35 113.2 184.83 114.18 184.32 116.36 183.51 117.33 183.14 119.05 182.49 120.3 182.15 123.53 181.24 125.71 179.93 126.16 179.67 126.8 179.5 127.5 179.32 128.37 179.13 128.92 179.04 130.54 178.85 130.81 178.88 130.82 178.87 130.8 178.86 130.82 178.85 130.96 178.82 130.99 178.8 131.1 178.8 131.98 178.74 133.06 178.74 138.8 178.76 139.15 178.87 141.4 180.76 143.06 183.91 144.85 186.74 147.92 187.27 152.28 186.68 154.86 186.3 154.83 184.87 156.34 185.27 156.26 185.29 159.49 188.96 160.46 188.93 161.85 191.69 161.51 195.49 161.32 197.38 159.76 200.15 160.54 201 160.23 202.39 159.36 206.28 158.03 209.22 159.29 211.98 160.14 213.33 162.35 216.89 166.91 221.65 169.89 224.96 169.87 225.21 170.07 225.45 170.61 226.22 171.39 229.26 171.38 229.26 172.08 230.43 172.19 230.41 173.24 230.16 172.09 230.43 175.09 237.75 176.33 241.66 174.89 243.18 176.73 247.84 178.16 251.02 178.01 254.17 177.04 256.7 174.88 258.34 172.8 261.55 172.76 262.22 169.58 271.48 169.51 277.01 170.18 281.18 172.97 284.8 177.32 293.41 180.78 298.72 180.86 303.24 180.85 305.47 181.92 308.08 182.34 309.27 182.43 312.59 184.19 318.72 186.07 321.75 189.03 324.36 190.64 326.55 191.76 329.65 194.44 334.83 194.97 335.56 196.53 337.9 196.8 340.55 196.18 341.33 194.97 341.73 194.97 342.53 197.15 345.32 197.09 347.01 198.6 347.19 202.18 349.74 203.73 350 205.74 348.85 209.01 348.45 213.98 346.8 218.89 346.6 223.23 347.46 233.46 344.56 239.36 340.61 246.05 334.55 250.55 327.86 255.2 323.5 257.25 316.97 257.26 315.07 256.1 313.61 256.45 312.88 258.25 310.83 263.81 308.67 265.8 307.73 267.97 305.03 268.22 300.57 266.27 292.23 264.81 290.28 265.18 288.04 270.71 283.86 275.57 278.89 282.75 276.01 283.19 275.53 286.32 273.43 289.74 268.42 290.17 265.97 289.13 262.35 288.92 261.46 288.53 252.8 289.19 251.5 288.55 248.81 286.61 247.7 283.83 239.65 284.47 235.13 284.6 234.17 283.11 232.56 282.75 232.24 282.08 231.72 281.78 230.09 282.75 227.6 283.41 226.2 283.44 224.68 282.75 224.19 280.31 222.48 280.12 222.35 277.2 220.09 277.2 220.09 280.13 222.35 280.31 222.48 282.74 224.19 283.43 224.67 283.45 224.68 283.54 224.71 284.42 224.41 285.27 222.54 285.78 221.71 287.28 218.47 287.28 218.44 287.39 216.41 287.4 216.41 289.79 215.49 292.01 213.33 293.22 212.17 293.38 211.97 299.99 203.9 301.35 202.44 308.61 196.96 310 196.18 315.94 190.81 319.23 187.22 326.78 174.46 328.99 170.62 331.59 165.77 333.16 156.32 331.28 155.73"/>
    <polygon class="st0" points="285.93 226.68 285.86 226.67 285.79 226.69 285.73 226.73 285.7 226.77 285.69 226.78 285.25 227.08 285.23 227.91 285.82 227.65 286.15 226.85 286.04 226.74 285.98 226.7 285.93 226.68"/>
    <polygon class="st0" points="283.82 229.95 283.45 230.36 283.39 231.05 283.88 231.2 284.17 231.92 284.84 231.89 284.26 230.3 283.82 229.95"/>
    <polygon class="st0" points="305.39 255.39 304.27 255.88 305.11 256.82 305.91 256.47 305.39 255.39"/>
    <polygon class="st0" points="302.89 256.88 302.24 256.09 300.79 256.43 301.89 257.21 302.89 256.88"/>
    <polygon class="st0" points="300.36 253.37 299.59 254.37 301.08 254.76 300.9 253.44 300.36 253.37"/>
    <polygon class="st0" points="325.35 255.76 323.89 257.18 323 260.54 321.21 262.32 319.69 262.05 320.06 263.75 316.51 268.13 316.73 269.63 314.7 269.33 305.26 273.4 303.38 278.2 304.5 284.99 305.17 288.49 300.07 297.09 302.18 302.84 302.01 306.11 303.02 308.08 304.5 310.07 308.66 311.68 314.91 309.74 316.6 308.08 317.53 305.64 322.43 290.18 324.22 284.9 326.07 279.55 326 277.14 327.59 273.64 326.96 269.89 327.65 269.66 328.31 270.98 329.47 270.9 329.94 268.39 327.67 259.11 325.35 255.76"/>
    <polygon class="st0" points="321.56 260.39 320.2 259.9 320.49 261.16 321.42 261.37 321.56 260.39"/>
    <polygon class="st0" points="383.62 286.58 382.85 287.6 383.78 288.25 384.32 287.27 383.62 286.58"/>
    <polygon class="st0" points="366.73 274.28 367.96 275 368.53 274.31 367.9 273.6 366.73 274.28"/>
    <polygon class="st0" points="359.78 287.52 360.63 288.49 361.39 287.76 360.92 286.98 359.78 287.52"/>
    <polygon class="st0" points="359.98 289.08 359.4 289.03 359.26 289.18 358.87 289.56 358.85 290.44 359.89 290.5 360.54 289.75 360.43 289.05 359.98 289.08"/>
    <polygon class="st0" points="354.28 247.35 355.14 248.2 355.74 247.99 355.01 246.43 354.28 247.35"/>
    <polygon class="st0" points="349.53 224.63 350.78 225.32 351.7 224.9 350.75 224.15 349.53 224.63"/>
    <polygon class="st0" points="331.9 248.84 333.01 248.89 333.26 247.34 332.65 247.44 331.9 248.84"/>
    <polygon class="st0" points="318.11 245.34 317.13 246.05 318.48 246.45 319.27 245.68 318.11 245.34"/>
  </g>
  <g>
    <polyline class="Graphic_x0020_Style" points="264.74 255.47 264.26 255.63 263.98 255.14 264.58 254.94 264.74 255.47"/>
    <polyline class="Graphic_x0020_Style" points="265.84 253.4 264.58 253.6 263.44 256.13 264.42 261 265.45 261.34 269.19 265.79 269.32 268.5 269.53 269.49 269.53 269.52 269.37 271.54 267.28 272.72 267.08 273.52 267.23 276.51 265.56 274.68 263.75 272.74 263.31 270.74 263.89 269.36 264.27 268.52 263.5 265.21 260.46 265.72 259.18 264.4 258.71 263.49"/>
    <polyline class="Graphic_x0020_Style" points="100.68 101.27 97.22 99.13 84.77 91.63"/>
    <polyline class="Graphic_x0020_Style" points="84.77 91.63 84.77 92.38 84.36 97.05 70.94 97.12 70.94 103.82 70.76 107.57 67.49 109.05 66.16 110.6 66.73 115.51 66.25 116.47 61.39 116.48 50.9 116.55 49.98 118.86"/>
    <polyline class="Graphic_x0020_Style" points="69.95 143.84 71.56 143.25 72.15 140.62 73.38 140.44 75.37 142.13 76.81 141.08 81.98 140.34 82.8 140.78 97.91 140.78 98.47 137.57 97.36 135.64 97.27 134.84 96.78 130.37 96.22 125.44 96.06 124 96.01 123.46 94.37 108.92 93.95 105.55 93.81 104.3 93.48 101.27 100.68 101.27"/>
    <polyline class="Graphic_x0020_Style" points="218 278.62 214.12 279.38 209.97 280.13 201.89 279.61 199.25 279.3 197.04 277.69 195.45 277.59 192.43 277.59 185.27 277.6 179.73 277.65 178.35 277.52 176.25 275.89 169.51 277.01"/>
    <polyline class="Graphic_x0020_Style" points="203.74 308.27 203.74 302.26 203.82 297.1 207.74 296.55 207.89 292.59 207.89 284.98 208.1 281.61 214.12 280.62 217.15 280.2 218.76 281.93 219.86 281.27 221.45 280.17 225.58 279.26"/>
    <polyline class="Graphic_x0020_Style" points="130.74 155.74 130.83 154.44 132.47 153.64 133.06 154.19 135.72 156.62"/>
    <polyline class="Graphic_x0020_Style" points="121.71 142.86 121.5 145 122.83 147.52 124.75 149.02 124.85 150.83 125.87 151.59 126.26 151.89 126.8 152.2 127.61 152.69 129.53 152.7 129.63 154.23 130.74 155.74"/>
    <polyline class="Graphic_x0020_Style" points="182.99 109.58 179.82 111 176.58 108.8 170.53 107.44"/>
    <polyline class="Graphic_x0020_Style" points="138.45 125.62 138.45 130.35 138.14 136.72 136.8 139.96 135.04 141.25 133.06 141.34 126.8 141.67 126.18 141.7 124.25 142.76 121.71 142.86"/>
    <polyline class="Graphic_x0020_Style" points="135.72 156.62 135.37 157.87 136.38 159.84 136.67 160.96 136 162.96 133.06 167.35 132.1 168.81 132.18 169.58 132.02 170.34 131.91 172.58 132.02 173.4 132.06 178.05 131.98 178.42 131.98 178.74"/>
    <polyline class="Graphic_x0020_Style" points="156.34 185.27 157.42 183.32 157.68 180.97 160.03 178.4 160.59 178.1 161.02 178.17 162.05 176.59 164.89 176.13 167.22 178.18 168.45 177.7 170.06 174.65 171.61 171.24 171.56 170.34 173.71 168.8 174.34 166.32 176.41 163.15 177.72 159.83 178.63 158.52 181.24 157.17 181.46 154.68 179.79 153.51 179.19 150.83"/>
    <polyline class="Graphic_x0020_Style" points="177.32 148.24 173.93 149.32 172.33 150.87 168.39 149.67 165.03 149.68 162.62 150.3 160.89 151.91 158.27 151.87 155 150.31 153.17 149.91 150 151.18 149.56 151.16 149.05 150.58 146.8 148.36 143.83 147.64 139.84 148.21 138.22 149.14 137.95 150.16 135.98 153.37 135.72 156.62"/>
    <polyline class="Graphic_x0020_Style" points="241.26 216.67 242.48 216.4 242.92 216.89 243.86 216.87 244.96 216.3 245.08 214.94 245.9 215.36 246.8 215.04 247.51 215.29"/>
    <polyline class="Graphic_x0020_Style" points="243.55 211.02 242.97 211.52 242.48 211.98 242.11 212.32 241.92 213.33 241.26 216.67"/>
    <polyline class="Graphic_x0020_Style" points="215.69 159.83 216.25 160.77 218.84 164.13 218.86 166.31 218.16 167.28 218.61 168.87 221.32 169.3"/>
    <line class="Graphic_x0020_Style" x1="258.39" y1="113.75" x2="224.5" y2="113.75"/>
    <polyline class="Graphic_x0020_Style" points="272.47 145.95 272.44 141.76 274.18 137.48 274.08 135.87 274.27 134.25 275.7 134.21 278.62 132.27 279.65 131.97 280.87 130.3"/>
    <polyline class="Graphic_x0020_Style" points="262.29 165.74 263.39 160.95 264.15 160.21 265.43 160.4 265.99 158.87 266.26 156.59 267.08 155.64 268.9 152.57 270.1 152.34 271.92 148.26 272.06 147.94 272.47 145.95"/>
    <polyline class="Graphic_x0020_Style" points="224.5 113.75 224.5 122.06 220.99 122.22 220.35 124.14"/>
    <polyline class="Graphic_x0020_Style" points="63.85 152.52 65.36 152.6 66.23 152.67 68.58 153.8 73.52 153.63"/>
    <polyline class="Graphic_x0020_Style" points="52.06 148.72 53.98 148.71 56.58 148.54 56.79 148.08 59.2 148.03 59.51 148.44 60.78 148.99 63.2 149.07 63.18 149.73 61.8 150.17 60.36 149.83 59.9 149.75 57.78 148.89 57.08 149.69 55.58 149.69 55.16 150.18 54.78 150.48 51.81 150.49 51.24 150.91"/>
    <polyline class="Graphic_x0020_Style" points="51.36 153.93 54.8 153.47 56.5 153.2 57.99 152.49 58.85 152.51 59.9 152.52 63.85 152.52"/>
    <polyline class="Graphic_x0020_Style" points="73.52 153.63 73.34 150.98 72.53 149.79 71.42 149.59 70.95 146.76 69.95 143.84"/>
    <polyline class="Graphic_x0020_Style" points="69.95 143.84 68.07 142.51 67.85 142.32 65.09 138.56 63.81 138.13 63.87 138.03 59.9 136.01 58.69 135.95 53.41 136.72 52.23 138.43"/>
    <polyline class="Graphic_x0020_Style" points="78.08 169.96 76.61 170.51 76.83 167.69 76.86 167.62 74.62 164.16 73.06 163.66 71.33 163.91 70.44 164.19 69.18 164.34 67.38 166.8 65.54 167.67"/>
    <polyline class="Graphic_x0020_Style" points="72.99 176.44 74.49 174.72 75.7 173.88 76.73 172.31 78.01 170.66 78.08 169.96"/>
    <polyline class="Graphic_x0020_Style" points="300.27 157.58 300.14 157.79 299.04 159.56"/>
    <polyline class="Graphic_x0020_Style" points="294.66 188.69 291.03 193.58 290.87 196.21 290.87 200.13 290.88 202.39 290.88 203.33 291.09 208.53 292.33 210.64 293.1 211.98 293.22 212.17"/>
    <polyline class="Graphic_x0020_Style" points="221.32 169.3 220.95 170.34 221.47 170.84 223.84 171.43 225.35 172.66 226.06 174.57 230.37 177.6 230.19 178.77 231.2 180.18 233.46 181.44 234.66 184.37"/>
    <polyline class="Graphic_x0020_Style" points="234.66 184.37 238.28 187.23 240.26 186.46 242.21 186.99 243.33 185.97 244.46 186.27 245.9 188.14 247.57 190.2 248.77 190.69"/>
    <polyline class="Graphic_x0020_Style" points="269.92 186.04 269.07 182.89 267.5 182.84 266.62 181.83 265.93 178.99 264.06 176.84 259.75 173.08 258.21 172.79 257.85 172.03 258.97 170.25 261.14 170.14 262.45 169.26 262.45 167.97 262.29 165.74"/>
    <line class="Graphic_x0020_Style" x1="261.8" y1="187.64" x2="263.45" y2="186.08"/>
    <line class="Graphic_x0020_Style" x1="268.11" y1="186.05" x2="269.92" y2="186.04"/>
    <line class="Graphic_x0020_Style" x1="254.11" y1="316.9" x2="253.45" y2="313.2"/>
    <polyline class="Graphic_x0020_Style" points="185.04 173.96 186.61 174.15 189.47 172.94 190.62 173.91 192.44 172.77 196.34 171.9 199.8 169.59 199.6 167.99 203.71 167.47 206.95 166.21 210.47 162.73 211.09 161.05 213.65 159.67 215.69 159.83"/>
    <polyline class="Graphic_x0020_Style" points="179.19 150.83 180.98 151.2 182.59 154.4 183.24 155.11 183.41 158.96 183.54 160.8 185.2 163.5 181.87 163.87 179.7 163.66 179.07 165.36 183.92 170.07 184.05 170.34 185.04 173.96"/>
    <polyline class="Graphic_x0020_Style" points="220.35 124.14 213.46 120.46 208 117.63 201.2 114.2 200.37 113.79 187.49 107.9 182.99 109.58"/>
    <polyline class="Graphic_x0020_Style" points="182.99 109.58 183.93 115.76 186.91 120.59 185.91 124.01 185.5 127.14 185.31 130.35 185.17 133.15 185.11 134.75 184.87 135.2 180.36 139.96 177.37 144.87 176.79 145.62 177.32 148.24"/>
    <line class="Graphic_x0020_Style" x1="177.32" y1="148.24" x2="179.19" y2="150.83"/>
    <polyline class="Graphic_x0020_Style" points="127.5 179.32 128 178.9 127.47 177.21 127.29 176.46 127.61 173.94 127.55 173.49 127.44 170.42 127.48 169.53 126.7 166.58 126.37 163.68 125.87 163.37 124.9 162.75 124.05 161.66 124.53 159.52"/>
    <polyline class="Graphic_x0020_Style" points="124.53 159.52 122.5 159.4 120.3 158.94 120.18 158.93"/>
    <polyline class="Graphic_x0020_Style" points="120.18 158.93 120.3 159.99 120.38 160.69 122.22 162.47 122.45 163.57 122.26 163.94 122.9 168.36 122.33 168.9 123.66 170.34 123.32 172.37 123.41 175.05 123.08 176.77 123.72 178.15 125.7 179.38 125.71 179.6 125.71 179.93"/>
    <polyline class="Graphic_x0020_Style" points="130.74 155.74 129.14 157.71 126.59 157.6 124.66 159.35 124.53 159.52"/>
    <polyline class="Graphic_x0020_Style" points="198.04 190.82 197.92 189.15 197.72 187.27 198.11 187.11 199.67 185.42 200.02 184.71 203.15 184.2 205.67 186.4 212.19 187.68 213.84 188.09 215.79 185.43 217.82 185.95 222.36 184.05 225.02 184.59 226.53 183.21 230.66 184.07 232.69 183.79 234.66 184.37"/>
    <polyline class="Graphic_x0020_Style" points="109.59 165.77 107.51 163.93 105.88 163.92 104.57 164.05 102.84 165.34 100.53 164.38 99.51 162.46 97.86 161.87"/>
    <polyline class="Graphic_x0020_Style" points="187.93 196 187.24 193.06 184.03 189.82 181.67 184.4 181.28 180.96 180.57 180.11 182.74 177.44 183.87 175.2 185.04 173.96"/>
    <polyline class="Graphic_x0020_Style" points="175.92 196.23 177.51 196.23 180.64 196.26 187.45 197.98 187.93 196"/>
    <polyline class="Graphic_x0020_Style" points="172.09 230.43 175.25 229.68 182.06 229.68 187.62 229.66 189.75 230.32 191.72 235.94 193.21 238.29 193.49 238.94 200.83 238.45 201.92 234.66 203.6 234.37 205.96 234.09 206.62 235.52 211.17 235.55 211.33 237.11 211.52 239.33 211.76 239.9 211.32 244.67 212.9 246.89 213.34 249.34 213.03 250.74 213.83 251.51 220.35 250.55"/>
    <polyline class="Graphic_x0020_Style" points="175.12 224.74 173.08 226.04 172.61 228.9 171.39 229.27"/>
    <polyline class="Graphic_x0020_Style" points="242.91 223.77 241.98 219.2 242.1 218.85 242.15 218.15 241.26 216.67"/>
    <polyline class="Graphic_x0020_Style" points="170.61 226.22 173.74 223.51 175.12 224.74"/>
    <polyline class="Graphic_x0020_Style" points="198.04 190.82 193.02 189.94 189.88 190.79 188.97 193.95 187.93 196"/>
    <polyline class="Graphic_x0020_Style" points="175.12 224.74 177.15 225.23 178.44 223.98 180.48 223.32 180.53 224.92 181.45 225.57 183.29 224.03 183.52 223.75 186.71 221.67 186.99 221.01 187.9 217.47 188.22 214.67 189.26 213.1 189.91 211.98 190.02 211.79 191.2 210.64 193.48 208.37 194.08 206.51 194.97 203.84 195.14 202.39 195.76 197.32 198.04 190.82"/>
    <polyline class="Graphic_x0020_Style" points="296.73 153.39 297.99 153.78 299.73 152.39"/>
    <line class="Graphic_x0020_Style" x1="84.77" y1="91.63" x2="84.77" y2="90.17"/>
    <polyline class="Graphic_x0020_Style" points="299.04 159.56 297.56 159.21 294.19 159.54 294.24 157.03 295.21 155.63 296.73 153.39"/>
    <polyline class="Graphic_x0020_Style" points="296.73 153.39 293.21 149.42 292 148.67 291.3 147.64 288.26 145.49 286.68 145.17 285.26 144.5 281.2 145.15 279.54 144.21 278.04 143.63 276.51 145.93 275.54 145.41 272.47 145.95"/>
    <polyline class="Graphic_x0020_Style" points="175.92 196.23 169.03 195.7 167.89 196.23"/>
    <polyline class="Graphic_x0020_Style" points="166.91 221.65 168.13 220.14 169.87 220.67 170.01 218.93 168.84 216.68 169.44 215.45 170.79 215.3 172.21 215.28 172.49 214.95 172.44 213.08 173.66 213.13 174.7 215.1 176.44 215.27 177.79 214.54 179.3 215.62 180.38 213.28 180.54 211.98 180.74 210.17 180.79 208.13 180.8 207.52 179.45 206.51 178.33 205.68 178.67 203.85 180 202.39 180.71 201.61 179.98 199.54 175.34 200.12 175.92 196.23"/>
    <polyline class="Graphic_x0020_Style" points="120.18 158.93 117.91 159.51 117.33 159.49 116.36 159.46 114.82 159.41 113.2 159.44 110.72 159.47 109.47 159.49 108.55 160.71 109.16 163 109.35 165.15 109.59 165.77"/>
    <polyline class="Graphic_x0020_Style" points="109.59 165.77 110 168.7 110.3 170.34 107.99 175.89 107.81 176.12 107.39 178.23 109.43 183.03 109.09 183.9 107.86 184.08"/>
    <polyline class="Graphic_x0020_Style" points="85.58 173.82 86.61 173.67 87.77 171.89 86.6 170.66 86.55 170.13 88.7 169.93 87.86 168.31 88.67 167.52 86.94 165.39 87.63 162.95"/>
    <polyline class="Graphic_x0020_Style" points="58.67 159.57 59.06 158.86 59.45 157.95 59.9 157.4 60.93 157.18 62.3 156.89 63.7 156.38 63.31 154.53 63.92 154.12 63.85 152.52"/>
    <polyline class="Graphic_x0020_Style" points="167.89 196.23 163.71 196.21 162.31 196.22 161.51 195.49"/>
    <polyline class="Graphic_x0020_Style" points="166.19 201.09 167.72 200.84 167.84 198.29"/>
    <polyline class="Graphic_x0020_Style" points="160.54 201 163.06 201.09 165.07 201.09"/>
    <line class="Graphic_x0020_Style" x1="167.85" y1="197.29" x2="167.89" y2="196.23"/>
    <polyline class="Graphic_x0020_Style" points="294.66 188.69 293.21 188.72 291.63 188.72 289.58 187.64 285.86 189.87 283.92 190.71 282.98 190.56 278.84 190.07 273.12 186.78 270.36 186.76 269.92 186.04"/>
    <polyline class="Graphic_x0020_Style" points="89.49 187.11 89.23 185.2 90.01 182.29 90.05 181.79 87.84 179.29 85.05 178.2 86.11 177.11 85.58 173.82"/>
    <polyline class="Graphic_x0020_Style" points="85.58 173.82 85.13 173.25 84.16 174.44 82.94 175.35 81.39 174.62 81.95 173.03 81.25 170.66 79.65 169.9 78.08 169.96"/>
    <polyline class="Graphic_x0020_Style" points="160.42 79.52 159.97 80.18 161.8 85.29 162.01 89.57 161.73 94.42 159.95 96.29 162.39 100.63 163.48 102.92 166.17 103.32 168.18 104.58 169.05 104.72 170.53 107.44"/>
    <polyline class="Graphic_x0020_Style" points="224.5 113.75 224.5 111.72 224.49 103.83 224.49 103.25 224.48 100.93 224.48 100.2 224.49 99.28 224.49 95.23 224.5 92.74 224.5 88.4 224.44 83.62 223.3 79.82 224.41 77.41 223.92 75.24 223.89 74.72 224.23 74.38 224.74 74.03 225.08 73.52"/>
    <polyline class="Graphic_x0020_Style" points="84.77 90.17 84.77 87.49 85.11 85.85 88.79 83.37 93.98 82.28 97.91 82.29 99.45 80.47 102.87 78.36 105.52 77.7 105.4 74.36 107.25 73.34 108.74 72.96 109.3 71.69 110.72 71.69 113.2 71.7 114.85 71.7 116.08 70.44 116.23 69.85 114.59 68.39 113.91 65.2 113.89 63.42 113.29 61.43 112.21 59.93 111.57 59.31"/>
    <line class="Graphic_x0020_Style" x1="66.08" y1="90.17" x2="84.77" y2="90.17"/>
    <polyline class="Graphic_x0020_Style" points="97.86 161.87 98.02 159.41 98.93 158.22 99.11 156 101.1 155.33 101.45 155.09 102.49 153.71 102.15 152.34 103.17 152.32 102.99 150.44 104.25 148.99 105.88 150.35 106.45 150.52 107.39 148.44 108.49 148.59 109.8 146.31 110.72 146.35 112.01 146.41 113.34 144.99 116.46 143.61 117.65 142.59 118.85 142.51 120.3 142.68 121.71 142.86"/>
    <polyline class="Graphic_x0020_Style" points="87.63 162.95 89.26 161.87 90.9 162.69 93.12 162.16 93.29 161.16 94.64 160.88 95.44 162.67 97.86 161.87"/>
    <polyline class="Graphic_x0020_Style" points="138.45 125.62 134.48 126.15 133.89 125.52 134.29 124.01 133.8 122.64 133.06 122.38 131.02 121.67 126.8 119.42 125.87 118.92 124.87 117.03 120.66 114.22 120.3 113.99 117.33 112.07 110.72 107.78 109.17 106.77 108.18 106.13 105.88 104.63 100.68 101.27"/>
    <polyline class="Graphic_x0020_Style" points="73.52 153.63 73.04 154.45 73.87 155.26 74.38 155.2 75.29 154.66 76.39 155.53 77.62 154.61 78.87 154.71 80.28 155.03 82.29 153.5 83.21 153.56 84.22 156.67 85.33 157.46 85.78 157.99 85.14 159.21 86.2 159.6 86.42 161.48 87.63 162.95"/>
    <polyline class="Graphic_x0020_Style" points="225.59 279.26 228.6 284.3 229.4 286.46 231.56 288.01 233.5 288.88 234.04 290.51 235.55 290.73 235.77 292.8 237 294.96 240.71 295.75 242.66 297.58"/>
    <polyline class="Graphic_x0020_Style" points="250.68 298.53 255.23 293.92 255.54 293.97 255.69 291.38 257.83 288.19 256.73 283.8 257.78 281.5 257.9 277.36 257.67 277 257.37 274.92 256.7 274.75 250.02 271.87 247.31 271.69 246.99 270.24"/>
    <polyline class="Graphic_x0020_Style" points="242.66 297.58 249.9 298.17 250.68 298.53"/>
    <polyline class="Graphic_x0020_Style" points="246.99 270.24 246.46 270.34 243.95 270.34 240.79 271.61 240.09 273.8 237.12 275.41 232.17 280.21 225.59 279.26"/>
    <polyline class="Graphic_x0020_Style" points="156.61 51.6 154.63 53.56 155.51 54.05 155.15 55.69 155.41 57.1 155.28 60.78 154.52 61.62 153.03 62.8 152.13 63.99 152.85 66.22 154.79 68.26 155.42 70.06 156.14 70.48 156.84 70.91 157.27 71.17 158.42 71.8 159.31 75.24 160.06 78.15 160.42 79.52"/>
    <polyline class="Graphic_x0020_Style" points="160.42 79.52 163.09 77.46 163.15 75.24 163.31 73.73 167.04 71.11 168.14 70.68 168.72 67.29"/>
    <polyline class="Graphic_x0020_Style" points="247.51 215.29 247.37 216.72 247.26 217.52 248.77 217.65 247.88 219.23 246.86 220.75 246.01 222.19 243.84 223.77 242.91 223.77"/>
    <polyline class="Graphic_x0020_Style" points="242.91 223.77 242.62 226.05 243.67 231.62 246.39 234.93 248.55 239.68"/>
    <polyline class="Graphic_x0020_Style" points="283.44 224.68 282.75 224.19 280.31 222.48 280.12 222.35 277.2 220.09 277.17 218.55 275.89 217.26 274.95 216.72 274.38 216.41 270.15 214.01 267.06 212.27 266.55 211.98 264.88 211.03 262.24 209.54 261.57 209.41"/>
    <polyline class="Graphic_x0020_Style" points="265.84 253.4 269.55 252.9 271.91 254.06 273.73 253.42 276.04 253.74 278.92 252.1 280.47 252.74 282.75 251.67 288.55 248.81"/>
    <polyline class="Graphic_x0020_Style" points="257.5 244.36 260.36 245.21 260.49 245.23 261.6 245.68 262.17 244.88 263.88 246.93 264.22 249.08 265.84 253.4"/>
    <polyline class="Graphic_x0020_Style" points="247.22 209.66 247.55 210.64 248.05 211.98 248.67 213.62 247.51 215.29"/>
    <polyline class="Graphic_x0020_Style" points="248.77 190.69 249.05 191.23 248.58 192.25 248.83 193.67 248.53 194.24 248.57 195.16 249.46 195.33 250.67 196.28 249.71 197.52 247.53 199.99 245.89 201.57 245.19 201.77 245.08 202.39 244.88 203.43 244.08 204.98 244.04 206.17 244 206.66 243.74 208.13 243.52 209.44 243.55 211.02"/>
    <polyline class="Graphic_x0020_Style" points="261.57 209.41 261.56 208.61 261.64 206.67 261.65 205.4 261.74 204.46 262.42 202.83 263.14 202.11 263.35 202.03 263.89 200.99 264.06 200.65 264.23 200.69 264.25 200.49 265.24 200.02 265.12 199.58 265.88 198.17 265.72 195.76 265.78 195.06 265.07 193.67 264.17 192.32 263.51 189.89 261.8 187.64"/>
    <polyline class="Graphic_x0020_Style" points="243.55 211.02 244.5 210.7 245.9 210.87 246.5 210.05 247.22 209.66"/>
    <polyline class="Graphic_x0020_Style" points="261.8 187.64 259.84 189.63 259.06 189.58 257.44 189.25 254.38 190.67 253.8 190.36 253.55 190.36 252.7 189.36 251.54 190.12 249.81 189.71 248.77 190.69"/>
    <polyline class="Graphic_x0020_Style" points="247.22 209.66 250.52 209.41 261.57 209.41"/>
    <line class="Graphic_x0020_Style" x1="262.18" y1="113.75" x2="273.8" y2="113.75"/>
    <polyline class="Graphic_x0020_Style" points="263.45 186.08 266.74 186.06 268.11 186.05"/>
    <polyline class="Graphic_x0020_Style" points="241.1 165.03 241.04 163.37 240.39 162.98 236.6 163.05 236.26 164.64 236.56 165.28"/>
    <polyline class="Graphic_x0020_Style" points="236.56 165.28 236.56 166.38 240.4 166.35 241.1 165.03"/>
    <line class="Graphic_x0020_Style" x1="262.18" y1="113.75" x2="258.39" y2="113.75"/>
    <g>
      <g>
        <line class="Graphic_x0020_Style" x1="319.62" y1="171.98" x2="319.46" y2="172.18"/>
        <polyline class="st1" points="318.84 172.93 318.11 173.8 313.82 178.09 309.21 182.22 307.91 183.96"/>
        <polyline class="Graphic_x0020_Style" points="307.61 184.35 307.47 184.55 307.22 184.58"/>
        <polyline class="st16" points="306.2 184.69 305.79 184.74 301.14 185.3 298.71 187.34 295.38 188.45"/>
        <line class="Graphic_x0020_Style" x1="294.9" y1="188.61" x2="294.66" y2="188.69"/>
      </g>
      <g>
        <line class="Graphic_x0020_Style" x1="262.29" y1="165.74" x2="262.06" y2="165.64"/>
        <polyline class="Graphic_x0020_Style" points="261.72 165.5 261.49 165.4 261.5 165.15"/>
        <line class="st8" x1="261.53" y1="164.47" x2="261.56" y2="163.8"/>
        <polyline class="Graphic_x0020_Style" points="261.58 163.46 261.59 163.21 261.41 163.03"/>
        <polyline class="st15" points="260.77 162.35 258.91 160.38 258.59 158.87 258.41 156.7 258.63 155.14"/>
        <polyline class="Graphic_x0020_Style" points="258.7 154.67 258.74 154.42 258.49 154.43"/>
        <line class="st7" x1="257.95" y1="154.44" x2="257.41" y2="154.45"/>
        <polyline class="Graphic_x0020_Style" points="257.14 154.46 256.89 154.46 256.75 154.67"/>
        <polyline class="Graphic_x0020_Style" points="256.33 155.29 256.19 155.5 255.94 155.51"/>
        <line class="st17" x1="255.24" y1="155.52" x2="254.54" y2="155.53"/>
        <polyline class="Graphic_x0020_Style" points="254.19 155.54 253.94 155.54 254.12 155.72"/>
        <polyline class="st12" points="254.79 156.4 255.06 156.68 255.24 158.87 250.92 164.24 249.42 164.66"/>
        <polyline class="Graphic_x0020_Style" points="248.95 164.79 248.71 164.85 248.51 164.71"/>
        <polyline class="st14" points="247.7 164.13 246.25 163.09 245.61 162.8"/>
        <polyline class="Graphic_x0020_Style" points="245.15 162.6 244.92 162.5 244.71 162.63"/>
        <polyline class="st13" points="243.87 163.13 243.57 163.32 243.34 163.89"/>
        <polyline class="Graphic_x0020_Style" points="243.16 164.34 243.06 164.57 242.82 164.63"/>
        <line class="st4" x1="242.23" y1="164.77" x2="241.64" y2="164.91"/>
        <line class="Graphic_x0020_Style" x1="241.34" y1="164.97" x2="241.1" y2="165.03"/>
      </g>
      <g>
        <line class="Graphic_x0020_Style" x1="236.56" y1="165.28" x2="236.31" y2="165.3"/>
        <line class="st9" x1="235.4" y1="165.36" x2="231.78" y2="165.6"/>
        <polyline class="Graphic_x0020_Style" points="231.32 165.63 231.07 165.64 230.9 165.46"/>
        <polyline class="st10" points="230.15 164.69 229.56 164.07 228.47 162.58"/>
        <polyline class="Graphic_x0020_Style" points="228.16 162.14 228.01 161.94 227.76 161.99"/>
        <line class="st5" x1="226.76" y1="162.19" x2="225.75" y2="162.38"/>
        <polyline class="Graphic_x0020_Style" points="225.25 162.48 225.01 162.53 224.87 162.74"/>
        <polyline class="st3" points="224.28 163.62 223.49 164.83 222.6 168.11 221.89 168.77"/>
        <line class="Graphic_x0020_Style" x1="221.5" y1="169.13" x2="221.32" y2="169.3"/>
      </g>
      <g>
        <line class="Graphic_x0020_Style" x1="268.57" y1="108.98" x2="268.35" y2="109.1"/>
        <polyline class="st2" points="267.39 109.6 265.76 110.46 265.2 111.43 262.81 113.26"/>
        <line class="Graphic_x0020_Style" x1="262.38" y1="113.59" x2="262.18" y2="113.75"/>
      </g>
      <g>
        <line class="Graphic_x0020_Style" x1="268.11" y1="186.05" x2="268.04" y2="185.81"/>
        <polyline class="Graphic_x0020_Style" points="267.85 185.21 267.78 184.97 267.55 184.89"/>
        <line class="st11" x1="266.56" y1="184.71" x2="264.16" y2="185.77"/>
        <line class="Graphic_x0020_Style" x1="263.68" y1="185.98" x2="263.45" y2="186.08"/>
      </g>
      <g>
        <line class="Graphic_x0020_Style" x1="165.07" y1="201.09" x2="165.32" y2="201.09"/>
        <line class="Graphic_x0020_Style" x1="165.94" y1="201.09" x2="166.19" y2="201.09"/>
      </g>
      <g>
        <polyline class="Graphic_x0020_Style" points="167.84 198.29 167.87 198.25 167.95 198.25 167.96 198.17 167.94 198.14 167.95 198.07 167.97 198.05 167.97 198.01"/>
        <line class="Graphic_x0020_Style" x1="167.89" y1="197.53" x2="167.85" y2="197.29"/>
      </g>
      <g>
        <polyline class="Graphic_x0020_Style" points="166.19 201.09 166.18 200.98 165.94 201"/>
        <line class="Graphic_x0020_Style" x1="165.32" y1="201.06" x2="165.07" y2="201.09"/>
      </g>
      <g>
        <polyline class="Graphic_x0020_Style" points="167.85 197.29 167.84 197.29 167.84 197.54"/>
        <line class="Graphic_x0020_Style" x1="167.84" y1="198.04" x2="167.84" y2="198.29"/>
      </g>
      <g>
        <line class="Graphic_x0020_Style" x1="258.39" y1="113.75" x2="258.59" y2="113.89"/>
        <polyline class="st6" points="259.59 114.6 259.99 114.88 260.72 114.78"/>
        <polyline class="Graphic_x0020_Style" points="261.32 114.69 261.57 114.66 261.71 114.45"/>
        <line class="Graphic_x0020_Style" x1="262.04" y1="113.95" x2="262.18" y2="113.75"/>
      </g>
    </g>
    <polyline class="Graphic_x0020_Style" points="242.66 297.58 238.23 299.37 232.64 304.04 232.13 306.01 230.35 307.77 229.43 307.94 228.74 308.08 228.17 308.39 227.25 311.19 226.14 312.26 223.23 312.63 222.46 312.4 218.06 310.51 216.62 310.52 215.65 311.27 214.66 313.91 210.61 316.85 206.77 316.92 206.71 312.02 205.36 309.54 203.74 308.27"/>
    <polyline class="Graphic_x0020_Style" points="237.87 324.65 239.5 324.28 240.34 324.95 240.57 324.93 242.64 326.67 242.39 328.2 241.71 328.94 241.69 329.49 241.16 330.05 238.47 330.74 237.13 332.68 235.12 331.77 234.36 331.4 233.46 329.49 233.15 328.66 234.02 328.1 234.92 327.06 235.49 326.28 237.87 324.65"/>
    <line class="Graphic_x0020_Style" x1="257.25" y1="316.97" x2="254.11" y2="316.9"/>
    <polyline class="Graphic_x0020_Style" points="253.45 313.2 253.55 308.08 253.35 306.13 253.07 305.02 251.92 303.25 250.68 298.53"/>
    <polyline class="Graphic_x0020_Style" points="203.74 308.27 203.74 311.78 203.59 323.32 200.2 325.61 194.97 324.91 193.09 324.5 191.4 322.02 189.03 324.36"/>
    <polyline class="Graphic_x0020_Style" points="254.11 316.9 253.44 318.25 253.29 318.81 252.56 318.88 251.44 318.88 250.53 318.57 248.95 316.68 248.98 314.71 250.73 312.76 252.57 313.14 253.45 313.2"/>
    <polyline class="Graphic_x0020_Style" points="220.35 250.55 219.85 258.79 212.41 259.4 212.04 262.37 212.04 272.53 218 278.62"/>
    <line class="Graphic_x0020_Style" x1="225.58" y1="279.26" x2="225.59" y2="279.26"/>
    <polyline class="Graphic_x0020_Style" points="248.55 239.68 243.55 240.18 243.46 240.11 241.32 240.59 238.8 243.78 239.62 245.84 239.68 249.47 238.66 253.36 239.05 254.55 241.55 256.73 244.48 255.8 244.38 260.88 243.29 260.42 241.24 261.03 237.8 256.85 235.38 256.28 233.45 253.63 231.93 254.99 226.55 254.03 225.34 252.13 222.32 252.67 220.89 250.7 220.35 250.55"/>
    <polyline class="Graphic_x0020_Style" points="246.99 270.24 246.15 267.64 258.71 263.49"/>
    <polyline class="Graphic_x0020_Style" points="258.71 263.49 257.8 263.29 256.99 262.22 257.4 260.82 257.77 258.02 259.97 256.68 259 256.06 258.72 253.47 258.98 251.02 260.64 249.21 257.5 244.36"/>
    <polyline class="Graphic_x0020_Style" points="218 278.62 224.4 278.27 225.58 279.26"/>
    <polyline class="Graphic_x0020_Style" points="257.5 244.36 254.32 243.04 254.02 242.93 250.16 241.04 249.43 240.83 248.55 239.68"/>
    <line class="Graphic_x0020_Style" x1="98.58" y1="54.88" x2="98.53" y2="54.88"/>
    <polyline class="Graphic_x0020_Style" points="108.58 58.54 108.5 58.56 108.42 58.49 108.45 58.36 108.49 58.34"/>
    <line class="Graphic_x0020_Style" x1="98.56" y1="56.05" x2="98.41" y2="55.88"/>
    <polyline class="Graphic_x0020_Style" points="299.04 159.56 298.23 161.55 300.39 165.02 303.29 167.69 306.21 168.77 315.85 171.97 319.62 171.98"/>
  </g>
</svg>